<mxfile host="app.diagrams.net" modified="2022-03-13T15:40:37.698Z" agent="5.0 (Windows)" etag="XJNPCU2uEq3g8gfM76B2" version="17.1.2" type="github">
  <diagram id="cHOvcO2SzUBjgOlQo1bt" name="Page-1">
    <mxGraphModel dx="2586" dy="866" grid="1" gridSize="10" guides="1" tooltips="1" connect="1" arrows="1" fold="1" page="1" pageScale="1" pageWidth="850" pageHeight="1100" math="0" shadow="0">
      <root>
        <mxCell id="0" />
        <mxCell id="1" parent="0" />
        <mxCell id="joPICeFfUyW9Jf4m2eAF-21" value="" style="endArrow=none;html=1;rounded=0;strokeColor=#000000;strokeWidth=1;exitX=1;exitY=0.5;exitDx=0;exitDy=0;" edge="1" parent="1" source="bvwN4WITmdQyCTtZIi4v-8">
          <mxGeometry width="50" height="50" relative="1" as="geometry">
            <mxPoint x="370" y="340" as="sourcePoint" />
            <mxPoint x="580" y="300" as="targetPoint" />
          </mxGeometry>
        </mxCell>
        <mxCell id="joPICeFfUyW9Jf4m2eAF-34" value="" style="endArrow=none;html=1;rounded=0;strokeColor=#000000;strokeWidth=1;exitX=1;exitY=0.5;exitDx=0;exitDy=0;entryX=0.024;entryY=0.525;entryDx=0;entryDy=0;entryPerimeter=0;" edge="1" parent="1" target="joPICeFfUyW9Jf4m2eAF-19">
          <mxGeometry width="50" height="50" relative="1" as="geometry">
            <mxPoint x="539" y="302" as="sourcePoint" />
            <mxPoint x="579" y="302" as="targetPoint" />
          </mxGeometry>
        </mxCell>
        <mxCell id="f4b_KUaprDpnl6uOXfkv-31" value="" style="endArrow=none;html=1;rounded=0;fontFamily=Lucida Console;fontSize=20;fontColor=#FF8000;strokeColor=#000000;entryX=0.035;entryY=0.535;entryDx=0;entryDy=0;entryPerimeter=0;exitX=1.002;exitY=0.607;exitDx=0;exitDy=0;exitPerimeter=0;" parent="1" source="bvwN4WITmdQyCTtZIi4v-141" target="bvwN4WITmdQyCTtZIi4v-170" edge="1">
          <mxGeometry width="50" height="50" relative="1" as="geometry">
            <mxPoint x="459.2" y="1056.56" as="sourcePoint" />
            <mxPoint x="458.9999999999997" y="986.4399999999998" as="targetPoint" />
          </mxGeometry>
        </mxCell>
        <mxCell id="joPICeFfUyW9Jf4m2eAF-16" value="" style="endArrow=none;html=1;rounded=0;fontFamily=Lucida Console;fontSize=20;fontColor=#FF8000;entryX=0.5;entryY=1;entryDx=0;entryDy=0;exitX=0.513;exitY=0.006;exitDx=0;exitDy=0;strokeColor=#000000;exitPerimeter=0;" edge="1" parent="1" source="bvwN4WITmdQyCTtZIi4v-141">
          <mxGeometry width="50" height="50" relative="1" as="geometry">
            <mxPoint x="223.15999999999985" y="932.1299999999999" as="sourcePoint" />
            <mxPoint x="222.99999999999986" y="874.4999999999998" as="targetPoint" />
          </mxGeometry>
        </mxCell>
        <mxCell id="f4b_KUaprDpnl6uOXfkv-9" value="" style="endArrow=none;html=1;rounded=0;fontFamily=Lucida Console;fontSize=20;fontColor=#FF8000;exitX=0.987;exitY=0.481;exitDx=0;exitDy=0;entryX=-0.001;entryY=0.465;entryDx=0;entryDy=0;entryPerimeter=0;exitPerimeter=0;" parent="1" edge="1" target="f4b_KUaprDpnl6uOXfkv-4" source="f4b_KUaprDpnl6uOXfkv-7">
          <mxGeometry width="50" height="50" relative="1" as="geometry">
            <mxPoint x="520" y="838.59" as="sourcePoint" />
            <mxPoint x="550" y="839.09" as="targetPoint" />
          </mxGeometry>
        </mxCell>
        <mxCell id="f4b_KUaprDpnl6uOXfkv-29" value="" style="endArrow=none;html=1;rounded=0;fontFamily=Lucida Console;fontSize=20;fontColor=#FF8000;exitX=0.992;exitY=0.512;exitDx=0;exitDy=0;entryX=0;entryY=0.531;entryDx=0;entryDy=0;entryPerimeter=0;exitPerimeter=0;" parent="1" edge="1" target="f4b_KUaprDpnl6uOXfkv-4" source="f4b_KUaprDpnl6uOXfkv-7">
          <mxGeometry width="50" height="50" relative="1" as="geometry">
            <mxPoint x="520" y="840.84" as="sourcePoint" />
            <mxPoint x="550" y="841.34" as="targetPoint" />
          </mxGeometry>
        </mxCell>
        <mxCell id="bvwN4WITmdQyCTtZIi4v-202" value="" style="endArrow=none;html=1;rounded=0;fontFamily=Lucida Console;fontSize=20;fontColor=#FF8000;entryX=0.5;entryY=0;entryDx=0;entryDy=0;exitX=0.5;exitY=1;exitDx=0;exitDy=0;" parent="1" edge="1" target="bvwN4WITmdQyCTtZIi4v-153" source="bvwN4WITmdQyCTtZIi4v-170">
          <mxGeometry width="50" height="50" relative="1" as="geometry">
            <mxPoint x="658" y="1000.5" as="sourcePoint" />
            <mxPoint x="560" y="1067.5" as="targetPoint" />
          </mxGeometry>
        </mxCell>
        <mxCell id="bvwN4WITmdQyCTtZIi4v-199" value="" style="endArrow=none;html=1;rounded=0;fontFamily=Lucida Console;fontSize=20;fontColor=#FF8000;strokeColor=#000000;entryX=0;entryY=0.5;entryDx=0;entryDy=0;exitX=1.015;exitY=0.54;exitDx=0;exitDy=0;exitPerimeter=0;" parent="1" target="bvwN4WITmdQyCTtZIi4v-170" edge="1">
          <mxGeometry width="50" height="50" relative="1" as="geometry">
            <mxPoint x="319" y="965.5999999999999" as="sourcePoint" />
            <mxPoint x="576" y="964" as="targetPoint" />
          </mxGeometry>
        </mxCell>
        <mxCell id="bvwN4WITmdQyCTtZIi4v-198" value="" style="endArrow=none;html=1;rounded=0;fontFamily=Lucida Console;fontSize=20;fontColor=#FF8000;entryX=0.5;entryY=1;entryDx=0;entryDy=0;exitX=0.5;exitY=0;exitDx=0;exitDy=0;strokeColor=#000000;" parent="1" source="bvwN4WITmdQyCTtZIi4v-141" edge="1" target="joPICeFfUyW9Jf4m2eAF-28">
          <mxGeometry width="50" height="50" relative="1" as="geometry">
            <mxPoint x="439.6599999999999" y="859" as="sourcePoint" />
            <mxPoint x="439.6599999999999" y="799" as="targetPoint" />
          </mxGeometry>
        </mxCell>
        <mxCell id="bvwN4WITmdQyCTtZIi4v-57" value="" style="ellipse;whiteSpace=wrap;html=1;fontFamily=Lucida Console;fontSize=20;strokeColor=#6E67A1;strokeWidth=2;fillColor=#FFFFFF;" parent="1" vertex="1">
          <mxGeometry x="220" y="280" width="100" height="40" as="geometry" />
        </mxCell>
        <mxCell id="bvwN4WITmdQyCTtZIi4v-69" value="" style="ellipse;whiteSpace=wrap;html=1;fontFamily=Lucida Console;fontSize=20;strokeColor=#6E67A1;strokeWidth=2;fillColor=#d0cee2;" parent="1" vertex="1">
          <mxGeometry x="225" y="283" width="90" height="34" as="geometry" />
        </mxCell>
        <mxCell id="bvwN4WITmdQyCTtZIi4v-39" value="" style="endArrow=none;html=1;rounded=0;fontFamily=Lucida Console;fontSize=20;fontColor=#FF8000;entryX=0;entryY=0.5;entryDx=0;entryDy=0;exitX=1.002;exitY=0.6;exitDx=0;exitDy=0;exitPerimeter=0;" parent="1" edge="1">
          <mxGeometry width="50" height="50" relative="1" as="geometry">
            <mxPoint x="320.39999999999986" y="723.36" as="sourcePoint" />
            <mxPoint x="369" y="723.36" as="targetPoint" />
          </mxGeometry>
        </mxCell>
        <mxCell id="bvwN4WITmdQyCTtZIi4v-40" value="" style="endArrow=none;html=1;rounded=0;fontFamily=Lucida Console;fontSize=20;fontColor=#FF8000;entryX=0;entryY=0.5;entryDx=0;entryDy=0;exitX=1;exitY=0.5;exitDx=0;exitDy=0;" parent="1" edge="1">
          <mxGeometry width="50" height="50" relative="1" as="geometry">
            <mxPoint x="320" y="720.36" as="sourcePoint" />
            <mxPoint x="360" y="720.36" as="targetPoint" />
          </mxGeometry>
        </mxCell>
        <mxCell id="bvwN4WITmdQyCTtZIi4v-33" value="" style="endArrow=none;html=1;rounded=0;fontFamily=Lucida Console;fontSize=20;fontColor=#FF8000;entryX=0.5;entryY=1;entryDx=0;entryDy=0;exitX=0.5;exitY=0;exitDx=0;exitDy=0;strokeColor=#000000;" parent="1" edge="1">
          <mxGeometry width="50" height="50" relative="1" as="geometry">
            <mxPoint x="438.58" y="380" as="sourcePoint" />
            <mxPoint x="438.58" y="320" as="targetPoint" />
          </mxGeometry>
        </mxCell>
        <mxCell id="bvwN4WITmdQyCTtZIi4v-31" value="" style="endArrow=none;html=1;rounded=0;fontFamily=Lucida Console;fontSize=20;fontColor=#FF8000;entryX=0;entryY=0.5;entryDx=0;entryDy=0;exitX=1.002;exitY=0.6;exitDx=0;exitDy=0;exitPerimeter=0;" parent="1" edge="1">
          <mxGeometry width="50" height="50" relative="1" as="geometry">
            <mxPoint x="512.3999999999999" y="183" as="sourcePoint" />
            <mxPoint x="561" y="183" as="targetPoint" />
          </mxGeometry>
        </mxCell>
        <mxCell id="bvwN4WITmdQyCTtZIi4v-3" value="" style="group;fillColor=#b1ddf0;strokeColor=#10739e;" parent="1" vertex="1" connectable="0">
          <mxGeometry x="120" y="160" width="200" height="40" as="geometry" />
        </mxCell>
        <mxCell id="bvwN4WITmdQyCTtZIi4v-1" value="" style="rounded=0;whiteSpace=wrap;html=1;fillColor=#dae8fc;strokeColor=#6c8ebf;strokeWidth=2;" parent="bvwN4WITmdQyCTtZIi4v-3" vertex="1">
          <mxGeometry width="200" height="40" as="geometry" />
        </mxCell>
        <mxCell id="bvwN4WITmdQyCTtZIi4v-2" value="&lt;font style=&quot;font-size: 20px&quot; face=&quot;Lucida Console&quot; color=&quot;#6C8EBF&quot;&gt;STATION&lt;/font&gt;" style="text;html=1;strokeColor=none;fillColor=none;align=center;verticalAlign=middle;whiteSpace=wrap;rounded=0;" parent="bvwN4WITmdQyCTtZIi4v-3" vertex="1">
          <mxGeometry x="70" y="5" width="60" height="30" as="geometry" />
        </mxCell>
        <mxCell id="bvwN4WITmdQyCTtZIi4v-6" value="" style="group" parent="1" vertex="1" connectable="0">
          <mxGeometry x="560" y="160" width="200" height="40" as="geometry" />
        </mxCell>
        <mxCell id="bvwN4WITmdQyCTtZIi4v-4" value="" style="rounded=0;whiteSpace=wrap;html=1;fillColor=#dae8fc;strokeColor=#6c8ebf;strokeWidth=2;" parent="bvwN4WITmdQyCTtZIi4v-6" vertex="1">
          <mxGeometry width="200" height="40" as="geometry" />
        </mxCell>
        <mxCell id="bvwN4WITmdQyCTtZIi4v-5" value="&lt;font style=&quot;font-size: 20px&quot; face=&quot;Lucida Console&quot; color=&quot;#6C8EBF&quot;&gt;DISTANCE&lt;/font&gt;" style="text;html=1;strokeColor=none;fillColor=none;align=center;verticalAlign=middle;whiteSpace=wrap;rounded=0;" parent="bvwN4WITmdQyCTtZIi4v-6" vertex="1">
          <mxGeometry x="70" y="5" width="60" height="30" as="geometry" />
        </mxCell>
        <mxCell id="bvwN4WITmdQyCTtZIi4v-7" value="" style="group" parent="1" vertex="1" connectable="0">
          <mxGeometry x="340" y="280" width="200" height="40" as="geometry" />
        </mxCell>
        <mxCell id="bvwN4WITmdQyCTtZIi4v-8" value="" style="rounded=0;whiteSpace=wrap;html=1;fillColor=#dae8fc;strokeColor=#6c8ebf;strokeWidth=2;" parent="bvwN4WITmdQyCTtZIi4v-7" vertex="1">
          <mxGeometry width="200" height="40" as="geometry" />
        </mxCell>
        <mxCell id="bvwN4WITmdQyCTtZIi4v-9" value="&lt;font style=&quot;font-size: 20px&quot; face=&quot;Lucida Console&quot; color=&quot;#6C8EBF&quot;&gt;RAILLINE&lt;/font&gt;" style="text;html=1;strokeColor=none;fillColor=none;align=center;verticalAlign=middle;whiteSpace=wrap;rounded=0;" parent="bvwN4WITmdQyCTtZIi4v-7" vertex="1">
          <mxGeometry x="70" y="5" width="60" height="30" as="geometry" />
        </mxCell>
        <mxCell id="bvwN4WITmdQyCTtZIi4v-11" value="" style="group" parent="1" vertex="1" connectable="0">
          <mxGeometry x="340" y="474" width="200" height="40" as="geometry" />
        </mxCell>
        <mxCell id="bvwN4WITmdQyCTtZIi4v-12" value="" style="rounded=0;whiteSpace=wrap;html=1;fillColor=#dae8fc;strokeColor=#6c8ebf;strokeWidth=2;" parent="bvwN4WITmdQyCTtZIi4v-11" vertex="1">
          <mxGeometry width="200" height="40" as="geometry" />
        </mxCell>
        <mxCell id="bvwN4WITmdQyCTtZIi4v-13" value="&lt;font style=&quot;font-size: 20px&quot; face=&quot;Lucida Console&quot; color=&quot;#6C8EBF&quot;&gt;ROUTE&lt;/font&gt;" style="text;html=1;strokeColor=none;fillColor=none;align=center;verticalAlign=middle;whiteSpace=wrap;rounded=0;" parent="bvwN4WITmdQyCTtZIi4v-11" vertex="1">
          <mxGeometry x="70" y="5" width="60" height="30" as="geometry" />
        </mxCell>
        <mxCell id="bvwN4WITmdQyCTtZIi4v-14" value="" style="group" parent="1" vertex="1" connectable="0">
          <mxGeometry x="120" y="700" width="200" height="40" as="geometry" />
        </mxCell>
        <mxCell id="bvwN4WITmdQyCTtZIi4v-15" value="" style="rounded=0;whiteSpace=wrap;html=1;fillColor=#dae8fc;strokeColor=#6c8ebf;strokeWidth=2;" parent="bvwN4WITmdQyCTtZIi4v-14" vertex="1">
          <mxGeometry width="200" height="40" as="geometry" />
        </mxCell>
        <mxCell id="bvwN4WITmdQyCTtZIi4v-16" value="&lt;font style=&quot;font-size: 20px&quot; face=&quot;Lucida Console&quot; color=&quot;#6C8EBF&quot;&gt;SCHEDULE&lt;/font&gt;" style="text;html=1;strokeColor=none;fillColor=none;align=center;verticalAlign=middle;whiteSpace=wrap;rounded=0;" parent="bvwN4WITmdQyCTtZIi4v-14" vertex="1">
          <mxGeometry x="70" y="5" width="60" height="30" as="geometry" />
        </mxCell>
        <mxCell id="bvwN4WITmdQyCTtZIi4v-17" value="" style="group" parent="1" vertex="1" connectable="0">
          <mxGeometry x="560" y="700" width="200" height="40" as="geometry" />
        </mxCell>
        <mxCell id="bvwN4WITmdQyCTtZIi4v-18" value="" style="rounded=0;whiteSpace=wrap;html=1;fillColor=#dae8fc;strokeColor=#6c8ebf;strokeWidth=2;" parent="bvwN4WITmdQyCTtZIi4v-17" vertex="1">
          <mxGeometry width="200" height="40" as="geometry" />
        </mxCell>
        <mxCell id="bvwN4WITmdQyCTtZIi4v-19" value="&lt;font style=&quot;font-size: 20px&quot; face=&quot;Lucida Console&quot; color=&quot;#6C8EBF&quot;&gt;TRAIN&lt;/font&gt;" style="text;html=1;strokeColor=none;fillColor=none;align=center;verticalAlign=middle;whiteSpace=wrap;rounded=0;" parent="bvwN4WITmdQyCTtZIi4v-17" vertex="1">
          <mxGeometry x="70" y="5" width="60" height="30" as="geometry" />
        </mxCell>
        <mxCell id="bvwN4WITmdQyCTtZIi4v-20" value="" style="rhombus;whiteSpace=wrap;html=1;fontFamily=Lucida Console;fontSize=20;strokeWidth=2;fillColor=#fad7ac;strokeColor=#FF8000;" parent="1" vertex="1">
          <mxGeometry x="360" y="140" width="160" height="80" as="geometry" />
        </mxCell>
        <mxCell id="bvwN4WITmdQyCTtZIi4v-22" value="&lt;font color=&quot;#FF8000&quot;&gt;has&lt;/font&gt;" style="text;html=1;strokeColor=none;fillColor=none;align=center;verticalAlign=middle;whiteSpace=wrap;rounded=0;fontFamily=Lucida Console;fontSize=20;fontColor=#6C8EBF;" parent="1" vertex="1">
          <mxGeometry x="410" y="165" width="60" height="30" as="geometry" />
        </mxCell>
        <mxCell id="bvwN4WITmdQyCTtZIi4v-23" value="" style="rhombus;whiteSpace=wrap;html=1;fontFamily=Lucida Console;fontSize=20;strokeWidth=2;fillColor=#fad7ac;strokeColor=#FF8000;" parent="1" vertex="1">
          <mxGeometry x="360" y="351" width="160" height="80" as="geometry" />
        </mxCell>
        <mxCell id="bvwN4WITmdQyCTtZIi4v-24" value="&lt;div&gt;&lt;font color=&quot;#FF8000&quot;&gt;traverses&lt;/font&gt;&lt;/div&gt;" style="text;html=1;strokeColor=none;fillColor=none;align=center;verticalAlign=middle;whiteSpace=wrap;rounded=0;fontFamily=Lucida Console;fontSize=20;fontColor=#6C8EBF;" parent="1" vertex="1">
          <mxGeometry x="410" y="376" width="60" height="30" as="geometry" />
        </mxCell>
        <mxCell id="bvwN4WITmdQyCTtZIi4v-25" value="" style="rhombus;whiteSpace=wrap;html=1;fontFamily=Lucida Console;fontSize=20;strokeWidth=2;fillColor=#fad7ac;strokeColor=#FF8000;" parent="1" vertex="1">
          <mxGeometry x="360" y="680" width="160" height="80" as="geometry" />
        </mxCell>
        <mxCell id="bvwN4WITmdQyCTtZIi4v-26" value="&lt;div&gt;&lt;font color=&quot;#FF8000&quot;&gt;requires&lt;/font&gt;&lt;/div&gt;" style="text;html=1;strokeColor=none;fillColor=none;align=center;verticalAlign=middle;whiteSpace=wrap;rounded=0;fontFamily=Lucida Console;fontSize=20;fontColor=#6C8EBF;" parent="1" vertex="1">
          <mxGeometry x="410" y="705" width="60" height="30" as="geometry" />
        </mxCell>
        <mxCell id="bvwN4WITmdQyCTtZIi4v-27" value="" style="endArrow=none;html=1;rounded=0;fontFamily=Lucida Console;fontSize=20;fontColor=#FF8000;entryX=0;entryY=0.5;entryDx=0;entryDy=0;exitX=1;exitY=0.5;exitDx=0;exitDy=0;" parent="1" source="bvwN4WITmdQyCTtZIi4v-1" target="bvwN4WITmdQyCTtZIi4v-20" edge="1">
          <mxGeometry width="50" height="50" relative="1" as="geometry">
            <mxPoint x="300" y="250" as="sourcePoint" />
            <mxPoint x="350" y="200" as="targetPoint" />
          </mxGeometry>
        </mxCell>
        <mxCell id="bvwN4WITmdQyCTtZIi4v-32" value="" style="endArrow=none;html=1;rounded=0;fontFamily=Lucida Console;fontSize=20;fontColor=#FF8000;entryX=0;entryY=0.5;entryDx=0;entryDy=0;exitX=1;exitY=0.5;exitDx=0;exitDy=0;" parent="1" edge="1">
          <mxGeometry width="50" height="50" relative="1" as="geometry">
            <mxPoint x="520" y="179.83" as="sourcePoint" />
            <mxPoint x="560" y="179.83" as="targetPoint" />
          </mxGeometry>
        </mxCell>
        <mxCell id="bvwN4WITmdQyCTtZIi4v-34" value="" style="endArrow=none;html=1;rounded=0;fontFamily=Lucida Console;fontSize=20;fontColor=#FF8000;entryX=0.5;entryY=1;entryDx=0;entryDy=0;strokeColor=#000000;exitX=0.5;exitY=0;exitDx=0;exitDy=0;" parent="1" edge="1" source="bvwN4WITmdQyCTtZIi4v-12">
          <mxGeometry width="50" height="50" relative="1" as="geometry">
            <mxPoint x="440" y="470" as="sourcePoint" />
            <mxPoint x="439.5799999999999" y="432" as="targetPoint" />
          </mxGeometry>
        </mxCell>
        <mxCell id="bvwN4WITmdQyCTtZIi4v-36" value="" style="endArrow=none;html=1;rounded=0;fontFamily=Lucida Console;fontSize=20;fontColor=#FF8000;entryX=0;entryY=0.5;entryDx=0;entryDy=0;exitX=1;exitY=0.5;exitDx=0;exitDy=0;" parent="1" edge="1">
          <mxGeometry width="50" height="50" relative="1" as="geometry">
            <mxPoint x="520" y="719.71" as="sourcePoint" />
            <mxPoint x="560" y="719.71" as="targetPoint" />
          </mxGeometry>
        </mxCell>
        <mxCell id="bvwN4WITmdQyCTtZIi4v-37" value="" style="endArrow=none;html=1;rounded=0;fontFamily=Lucida Console;fontSize=20;fontColor=#FF8000;entryX=0.5;entryY=1;entryDx=0;entryDy=0;exitX=0.5;exitY=0;exitDx=0;exitDy=0;strokeColor=#000000;" parent="1" edge="1" source="bvwN4WITmdQyCTtZIi4v-25">
          <mxGeometry width="50" height="50" relative="1" as="geometry">
            <mxPoint x="439.89000000000004" y="574" as="sourcePoint" />
            <mxPoint x="439.89000000000004" y="514" as="targetPoint" />
          </mxGeometry>
        </mxCell>
        <mxCell id="bvwN4WITmdQyCTtZIi4v-41" value="" style="ellipse;whiteSpace=wrap;html=1;fontFamily=Lucida Console;fontSize=20;strokeColor=#6E67A1;strokeWidth=2;fillColor=#d0cee2;" parent="1" vertex="1">
          <mxGeometry x="100" y="80" width="100" height="40" as="geometry" />
        </mxCell>
        <mxCell id="bvwN4WITmdQyCTtZIi4v-42" value="&lt;b&gt;&lt;font style=&quot;font-size: 12px&quot; color=&quot;#6E67A1&quot;&gt;station_no&lt;/font&gt;&lt;/b&gt;" style="text;html=1;strokeColor=none;fillColor=none;align=center;verticalAlign=middle;whiteSpace=wrap;rounded=0;fontFamily=Lucida Console;fontSize=20;fontColor=#FF8000;" parent="1" vertex="1">
          <mxGeometry x="120" y="92" width="60" height="12" as="geometry" />
        </mxCell>
        <mxCell id="bvwN4WITmdQyCTtZIi4v-43" value="" style="ellipse;whiteSpace=wrap;html=1;fontFamily=Lucida Console;fontSize=20;strokeColor=#6E67A1;strokeWidth=2;fillColor=#d0cee2;" parent="1" vertex="1">
          <mxGeometry x="240" y="80" width="100" height="40" as="geometry" />
        </mxCell>
        <mxCell id="bvwN4WITmdQyCTtZIi4v-44" value="&lt;font style=&quot;font-size: 12px&quot; color=&quot;#6E67A1&quot;&gt;address&lt;/font&gt;" style="text;html=1;strokeColor=none;fillColor=none;align=center;verticalAlign=middle;whiteSpace=wrap;rounded=0;fontFamily=Lucida Console;fontSize=20;fontColor=#FF8000;" parent="1" vertex="1">
          <mxGeometry x="260" y="92" width="60" height="12" as="geometry" />
        </mxCell>
        <mxCell id="bvwN4WITmdQyCTtZIi4v-45" value="" style="ellipse;whiteSpace=wrap;html=1;fontFamily=Lucida Console;fontSize=20;strokeColor=#6E67A1;strokeWidth=2;fillColor=#d0cee2;" parent="1" vertex="1">
          <mxGeometry x="170" y="40" width="100" height="40" as="geometry" />
        </mxCell>
        <mxCell id="bvwN4WITmdQyCTtZIi4v-46" value="&lt;font style=&quot;font-size: 12px&quot; color=&quot;#6E67A1&quot;&gt;hours&lt;/font&gt;" style="text;html=1;strokeColor=none;fillColor=none;align=center;verticalAlign=middle;whiteSpace=wrap;rounded=0;fontFamily=Lucida Console;fontSize=20;fontColor=#FF8000;" parent="1" vertex="1">
          <mxGeometry x="190" y="52" width="60" height="12" as="geometry" />
        </mxCell>
        <mxCell id="bvwN4WITmdQyCTtZIi4v-47" value="" style="ellipse;whiteSpace=wrap;html=1;fontFamily=Lucida Console;fontSize=20;strokeColor=#6E67A1;strokeWidth=2;fillColor=#d0cee2;" parent="1" vertex="1">
          <mxGeometry x="550" y="80" width="100" height="40" as="geometry" />
        </mxCell>
        <mxCell id="bvwN4WITmdQyCTtZIi4v-48" value="&lt;b&gt;&lt;font style=&quot;font-size: 12px&quot; color=&quot;#6E67A1&quot;&gt;stationA-stationB&lt;/font&gt;&lt;/b&gt;" style="text;html=1;strokeColor=none;fillColor=none;align=center;verticalAlign=middle;whiteSpace=wrap;rounded=0;fontFamily=Lucida Console;fontSize=20;fontColor=#FF8000;" parent="1" vertex="1">
          <mxGeometry x="550" y="92" width="100" height="12" as="geometry" />
        </mxCell>
        <mxCell id="bvwN4WITmdQyCTtZIi4v-49" value="" style="ellipse;whiteSpace=wrap;html=1;fontFamily=Lucida Console;fontSize=20;strokeColor=#6E67A1;strokeWidth=2;fillColor=#d0cee2;" parent="1" vertex="1">
          <mxGeometry x="660" y="80" width="100" height="40" as="geometry" />
        </mxCell>
        <mxCell id="bvwN4WITmdQyCTtZIi4v-50" value="&lt;font style=&quot;font-size: 12px&quot; color=&quot;#6E67A1&quot;&gt;miles&lt;/font&gt;" style="text;html=1;strokeColor=none;fillColor=none;align=center;verticalAlign=middle;whiteSpace=wrap;rounded=0;fontFamily=Lucida Console;fontSize=20;fontColor=#FF8000;" parent="1" vertex="1">
          <mxGeometry x="680" y="92" width="60" height="12" as="geometry" />
        </mxCell>
        <mxCell id="bvwN4WITmdQyCTtZIi4v-51" value="" style="ellipse;whiteSpace=wrap;html=1;fontFamily=Lucida Console;fontSize=20;strokeColor=#6E67A1;strokeWidth=2;fillColor=#d0cee2;" parent="1" vertex="1">
          <mxGeometry x="495" y="24" width="100" height="40" as="geometry" />
        </mxCell>
        <mxCell id="bvwN4WITmdQyCTtZIi4v-52" value="&lt;font style=&quot;font-size: 12px&quot; color=&quot;#6E67A1&quot;&gt;stationA&lt;/font&gt;" style="text;html=1;strokeColor=none;fillColor=none;align=center;verticalAlign=middle;whiteSpace=wrap;rounded=0;fontFamily=Lucida Console;fontSize=20;fontColor=#FF8000;" parent="1" vertex="1">
          <mxGeometry x="515" y="36" width="60" height="12" as="geometry" />
        </mxCell>
        <mxCell id="bvwN4WITmdQyCTtZIi4v-53" value="" style="ellipse;whiteSpace=wrap;html=1;fontFamily=Lucida Console;fontSize=20;strokeColor=#6E67A1;strokeWidth=2;fillColor=#d0cee2;" parent="1" vertex="1">
          <mxGeometry x="605" y="24" width="100" height="40" as="geometry" />
        </mxCell>
        <mxCell id="bvwN4WITmdQyCTtZIi4v-54" value="&lt;font style=&quot;font-size: 12px&quot; color=&quot;#6E67A1&quot;&gt;station_B&lt;/font&gt;" style="text;html=1;strokeColor=none;fillColor=none;align=center;verticalAlign=middle;whiteSpace=wrap;rounded=0;fontFamily=Lucida Console;fontSize=20;fontColor=#FF8000;" parent="1" vertex="1">
          <mxGeometry x="625" y="36" width="60" height="12" as="geometry" />
        </mxCell>
        <mxCell id="bvwN4WITmdQyCTtZIi4v-55" value="" style="ellipse;whiteSpace=wrap;html=1;fontFamily=Lucida Console;fontSize=20;strokeColor=#6E67A1;strokeWidth=2;fillColor=#d0cee2;" parent="1" vertex="1">
          <mxGeometry x="220" y="230" width="100" height="40" as="geometry" />
        </mxCell>
        <mxCell id="bvwN4WITmdQyCTtZIi4v-56" value="&lt;b&gt;&lt;font style=&quot;font-size: 12px&quot; color=&quot;#6E67A1&quot;&gt;rail_ID&lt;/font&gt;&lt;/b&gt;" style="text;html=1;strokeColor=none;fillColor=none;align=center;verticalAlign=middle;whiteSpace=wrap;rounded=0;fontFamily=Lucida Console;fontSize=20;fontColor=#FF8000;" parent="1" vertex="1">
          <mxGeometry x="240" y="242" width="60" height="12" as="geometry" />
        </mxCell>
        <mxCell id="bvwN4WITmdQyCTtZIi4v-58" value="&lt;div&gt;&lt;font style=&quot;font-size: 12px&quot; color=&quot;#6E67A1&quot;&gt;station_dis&lt;/font&gt;&lt;/div&gt;" style="text;html=1;strokeColor=none;fillColor=none;align=center;verticalAlign=middle;whiteSpace=wrap;rounded=0;fontFamily=Lucida Console;fontSize=20;fontColor=#FF8000;" parent="1" vertex="1">
          <mxGeometry x="240" y="292" width="60" height="12" as="geometry" />
        </mxCell>
        <mxCell id="bvwN4WITmdQyCTtZIi4v-61" value="" style="ellipse;whiteSpace=wrap;html=1;fontFamily=Lucida Console;fontSize=20;strokeColor=#6E67A1;strokeWidth=2;fillColor=#d0cee2;" parent="1" vertex="1">
          <mxGeometry x="220" y="330" width="100" height="40" as="geometry" />
        </mxCell>
        <mxCell id="bvwN4WITmdQyCTtZIi4v-62" value="&lt;font style=&quot;font-size: 12px&quot; color=&quot;#6E67A1&quot;&gt;speed&lt;/font&gt;" style="text;html=1;strokeColor=none;fillColor=none;align=center;verticalAlign=middle;whiteSpace=wrap;rounded=0;fontFamily=Lucida Console;fontSize=20;fontColor=#FF8000;" parent="1" vertex="1">
          <mxGeometry x="240" y="342" width="60" height="12" as="geometry" />
        </mxCell>
        <mxCell id="bvwN4WITmdQyCTtZIi4v-63" value="" style="ellipse;whiteSpace=wrap;html=1;fontFamily=Lucida Console;fontSize=20;strokeColor=#6E67A1;strokeWidth=2;fillColor=#d0cee2;" parent="1" vertex="1">
          <mxGeometry x="100" y="230" width="100" height="40" as="geometry" />
        </mxCell>
        <mxCell id="bvwN4WITmdQyCTtZIi4v-64" value="&lt;font style=&quot;font-size: 12px&quot; color=&quot;#6E67A1&quot;&gt;station_A&lt;/font&gt;" style="text;html=1;strokeColor=none;fillColor=none;align=center;verticalAlign=middle;whiteSpace=wrap;rounded=0;fontFamily=Lucida Console;fontSize=20;fontColor=#FF8000;" parent="1" vertex="1">
          <mxGeometry x="120" y="242" width="60" height="12" as="geometry" />
        </mxCell>
        <mxCell id="bvwN4WITmdQyCTtZIi4v-65" value="" style="ellipse;whiteSpace=wrap;html=1;fontFamily=Lucida Console;fontSize=20;strokeColor=#6E67A1;strokeWidth=2;fillColor=#d0cee2;" parent="1" vertex="1">
          <mxGeometry x="100" y="280" width="100" height="40" as="geometry" />
        </mxCell>
        <mxCell id="bvwN4WITmdQyCTtZIi4v-66" value="&lt;font style=&quot;font-size: 12px&quot; color=&quot;#6E67A1&quot;&gt;station_B&lt;/font&gt;" style="text;html=1;strokeColor=none;fillColor=none;align=center;verticalAlign=middle;whiteSpace=wrap;rounded=0;fontFamily=Lucida Console;fontSize=20;fontColor=#FF8000;" parent="1" vertex="1">
          <mxGeometry x="120" y="292" width="60" height="12" as="geometry" />
        </mxCell>
        <mxCell id="bvwN4WITmdQyCTtZIi4v-67" value="" style="ellipse;whiteSpace=wrap;html=1;fontFamily=Lucida Console;fontSize=20;strokeColor=#6E67A1;strokeWidth=2;fillColor=#d0cee2;" parent="1" vertex="1">
          <mxGeometry x="100" y="330" width="100" height="40" as="geometry" />
        </mxCell>
        <mxCell id="bvwN4WITmdQyCTtZIi4v-68" value="&lt;font style=&quot;font-size: 12px&quot; color=&quot;#6E67A1&quot;&gt;distance&lt;/font&gt;" style="text;html=1;strokeColor=none;fillColor=none;align=center;verticalAlign=middle;whiteSpace=wrap;rounded=0;fontFamily=Lucida Console;fontSize=20;fontColor=#FF8000;" parent="1" vertex="1">
          <mxGeometry x="120" y="342" width="60" height="12" as="geometry" />
        </mxCell>
        <mxCell id="bvwN4WITmdQyCTtZIi4v-71" value="" style="ellipse;whiteSpace=wrap;html=1;fontFamily=Lucida Console;fontSize=20;strokeColor=#6E67A1;strokeWidth=2;fillColor=#FFFFFF;" parent="1" vertex="1">
          <mxGeometry x="595" y="418" width="100" height="40" as="geometry" />
        </mxCell>
        <mxCell id="bvwN4WITmdQyCTtZIi4v-72" value="" style="ellipse;whiteSpace=wrap;html=1;fontFamily=Lucida Console;fontSize=20;strokeColor=#6E67A1;strokeWidth=2;fillColor=#d0cee2;" parent="1" vertex="1">
          <mxGeometry x="600" y="421" width="90" height="34" as="geometry" />
        </mxCell>
        <mxCell id="bvwN4WITmdQyCTtZIi4v-73" value="&lt;div&gt;&lt;font style=&quot;font-size: 12px&quot; color=&quot;#6E67A1&quot;&gt;station_open&lt;/font&gt;&lt;/div&gt;" style="text;html=1;strokeColor=none;fillColor=none;align=center;verticalAlign=middle;whiteSpace=wrap;rounded=0;fontFamily=Lucida Console;fontSize=20;fontColor=#FF8000;" parent="1" vertex="1">
          <mxGeometry x="615" y="430" width="60" height="12" as="geometry" />
        </mxCell>
        <mxCell id="bvwN4WITmdQyCTtZIi4v-74" value="" style="ellipse;whiteSpace=wrap;html=1;fontFamily=Lucida Console;fontSize=20;strokeColor=#6E67A1;strokeWidth=2;fillColor=#d0cee2;" parent="1" vertex="1">
          <mxGeometry x="720" y="391" width="100" height="40" as="geometry" />
        </mxCell>
        <mxCell id="bvwN4WITmdQyCTtZIi4v-75" value="&lt;font style=&quot;font-size: 12px&quot; color=&quot;#6E67A1&quot;&gt;station&lt;/font&gt;" style="text;html=1;strokeColor=none;fillColor=none;align=center;verticalAlign=middle;whiteSpace=wrap;rounded=0;fontFamily=Lucida Console;fontSize=20;fontColor=#FF8000;" parent="1" vertex="1">
          <mxGeometry x="740" y="403" width="60" height="12" as="geometry" />
        </mxCell>
        <mxCell id="bvwN4WITmdQyCTtZIi4v-76" value="" style="ellipse;whiteSpace=wrap;html=1;fontFamily=Lucida Console;fontSize=20;strokeColor=#6E67A1;strokeWidth=2;fillColor=#d0cee2;" parent="1" vertex="1">
          <mxGeometry x="720" y="441" width="100" height="40" as="geometry" />
        </mxCell>
        <mxCell id="bvwN4WITmdQyCTtZIi4v-77" value="&lt;font style=&quot;font-size: 12px&quot; color=&quot;#6E67A1&quot;&gt;open&lt;/font&gt;" style="text;html=1;strokeColor=none;fillColor=none;align=center;verticalAlign=middle;whiteSpace=wrap;rounded=0;fontFamily=Lucida Console;fontSize=20;fontColor=#FF8000;" parent="1" vertex="1">
          <mxGeometry x="740" y="453" width="60" height="12" as="geometry" />
        </mxCell>
        <mxCell id="bvwN4WITmdQyCTtZIi4v-78" value="" style="ellipse;whiteSpace=wrap;html=1;fontFamily=Lucida Console;fontSize=20;strokeColor=#6E67A1;strokeWidth=2;fillColor=#d0cee2;" parent="1" vertex="1">
          <mxGeometry x="240" y="607" width="100" height="40" as="geometry" />
        </mxCell>
        <mxCell id="bvwN4WITmdQyCTtZIi4v-79" value="&lt;b&gt;&lt;font style=&quot;font-size: 12px&quot; color=&quot;#6E67A1&quot;&gt;RDT&lt;/font&gt;&lt;/b&gt;" style="text;html=1;strokeColor=none;fillColor=none;align=center;verticalAlign=middle;whiteSpace=wrap;rounded=0;fontFamily=Lucida Console;fontSize=20;fontColor=#FF8000;" parent="1" vertex="1">
          <mxGeometry x="260" y="619" width="60" height="12" as="geometry" />
        </mxCell>
        <mxCell id="bvwN4WITmdQyCTtZIi4v-80" value="" style="ellipse;whiteSpace=wrap;html=1;fontFamily=Lucida Console;fontSize=20;strokeColor=#6E67A1;strokeWidth=2;fillColor=#d0cee2;" parent="1" vertex="1">
          <mxGeometry x="60" y="538" width="100" height="40" as="geometry" />
        </mxCell>
        <mxCell id="bvwN4WITmdQyCTtZIi4v-81" value="&lt;font style=&quot;font-size: 12px&quot; color=&quot;#6E67A1&quot;&gt;railline&lt;/font&gt;" style="text;html=1;strokeColor=none;fillColor=none;align=center;verticalAlign=middle;whiteSpace=wrap;rounded=0;fontFamily=Lucida Console;fontSize=20;fontColor=#FF8000;" parent="1" vertex="1">
          <mxGeometry x="80" y="550" width="60" height="12" as="geometry" />
        </mxCell>
        <mxCell id="bvwN4WITmdQyCTtZIi4v-82" value="" style="ellipse;whiteSpace=wrap;html=1;fontFamily=Lucida Console;fontSize=20;strokeColor=#6E67A1;strokeWidth=2;fillColor=#d0cee2;" parent="1" vertex="1">
          <mxGeometry x="170" y="536" width="100" height="40" as="geometry" />
        </mxCell>
        <mxCell id="bvwN4WITmdQyCTtZIi4v-83" value="&lt;font style=&quot;font-size: 12px&quot; color=&quot;#6E67A1&quot;&gt;day&lt;/font&gt;" style="text;html=1;strokeColor=none;fillColor=none;align=center;verticalAlign=middle;whiteSpace=wrap;rounded=0;fontFamily=Lucida Console;fontSize=20;fontColor=#FF8000;" parent="1" vertex="1">
          <mxGeometry x="190" y="550" width="60" height="12" as="geometry" />
        </mxCell>
        <mxCell id="bvwN4WITmdQyCTtZIi4v-84" value="" style="ellipse;whiteSpace=wrap;html=1;fontFamily=Lucida Console;fontSize=20;strokeColor=#6E67A1;strokeWidth=2;fillColor=#d0cee2;" parent="1" vertex="1">
          <mxGeometry x="280" y="538" width="100" height="40" as="geometry" />
        </mxCell>
        <mxCell id="bvwN4WITmdQyCTtZIi4v-85" value="&lt;font style=&quot;font-size: 12px&quot; color=&quot;#6E67A1&quot;&gt;time&lt;/font&gt;" style="text;html=1;strokeColor=none;fillColor=none;align=center;verticalAlign=middle;whiteSpace=wrap;rounded=0;fontFamily=Lucida Console;fontSize=20;fontColor=#FF8000;" parent="1" vertex="1">
          <mxGeometry x="300" y="550" width="60" height="12" as="geometry" />
        </mxCell>
        <mxCell id="bvwN4WITmdQyCTtZIi4v-86" value="" style="ellipse;whiteSpace=wrap;html=1;fontFamily=Lucida Console;fontSize=20;strokeColor=#6E67A1;strokeWidth=2;fillColor=#d0cee2;" parent="1" vertex="1">
          <mxGeometry x="500" y="640" width="100" height="40" as="geometry" />
        </mxCell>
        <mxCell id="bvwN4WITmdQyCTtZIi4v-87" value="&lt;b&gt;&lt;font style=&quot;font-size: 12px&quot; color=&quot;#6E67A1&quot;&gt;train_ID&lt;/font&gt;&lt;/b&gt;" style="text;html=1;strokeColor=none;fillColor=none;align=center;verticalAlign=middle;whiteSpace=wrap;rounded=0;fontFamily=Lucida Console;fontSize=20;fontColor=#FF8000;" parent="1" vertex="1">
          <mxGeometry x="520" y="652" width="60" height="12" as="geometry" />
        </mxCell>
        <mxCell id="bvwN4WITmdQyCTtZIi4v-88" value="" style="ellipse;whiteSpace=wrap;html=1;fontFamily=Lucida Console;fontSize=20;strokeColor=#6E67A1;strokeWidth=2;fillColor=#d0cee2;" parent="1" vertex="1">
          <mxGeometry x="555" y="595" width="100" height="40" as="geometry" />
        </mxCell>
        <mxCell id="bvwN4WITmdQyCTtZIi4v-89" value="&lt;font style=&quot;font-size: 12px&quot; color=&quot;#6E67A1&quot;&gt;seats&lt;/font&gt;" style="text;html=1;strokeColor=none;fillColor=none;align=center;verticalAlign=middle;whiteSpace=wrap;rounded=0;fontFamily=Lucida Console;fontSize=20;fontColor=#FF8000;" parent="1" vertex="1">
          <mxGeometry x="575" y="607" width="60" height="12" as="geometry" />
        </mxCell>
        <mxCell id="bvwN4WITmdQyCTtZIi4v-90" value="" style="ellipse;whiteSpace=wrap;html=1;fontFamily=Lucida Console;fontSize=20;strokeColor=#6E67A1;strokeWidth=2;fillColor=#d0cee2;" parent="1" vertex="1">
          <mxGeometry x="665" y="592" width="100" height="40" as="geometry" />
        </mxCell>
        <mxCell id="bvwN4WITmdQyCTtZIi4v-91" value="&lt;font style=&quot;font-size: 12px&quot; color=&quot;#6E67A1&quot;&gt;top_speed&lt;/font&gt;" style="text;html=1;strokeColor=none;fillColor=none;align=center;verticalAlign=middle;whiteSpace=wrap;rounded=0;fontFamily=Lucida Console;fontSize=20;fontColor=#FF8000;" parent="1" vertex="1">
          <mxGeometry x="685" y="604" width="60" height="12" as="geometry" />
        </mxCell>
        <mxCell id="bvwN4WITmdQyCTtZIi4v-92" value="" style="ellipse;whiteSpace=wrap;html=1;fontFamily=Lucida Console;fontSize=20;strokeColor=#6E67A1;strokeWidth=2;fillColor=#d0cee2;" parent="1" vertex="1">
          <mxGeometry x="720" y="640" width="100" height="40" as="geometry" />
        </mxCell>
        <mxCell id="bvwN4WITmdQyCTtZIi4v-93" value="&lt;font style=&quot;font-size: 12px&quot; color=&quot;#6E67A1&quot;&gt;price_mi&lt;/font&gt;" style="text;html=1;strokeColor=none;fillColor=none;align=center;verticalAlign=middle;whiteSpace=wrap;rounded=0;fontFamily=Lucida Console;fontSize=20;fontColor=#FF8000;" parent="1" vertex="1">
          <mxGeometry x="740" y="652" width="60" height="12" as="geometry" />
        </mxCell>
        <mxCell id="bvwN4WITmdQyCTtZIi4v-94" value="" style="ellipse;whiteSpace=wrap;html=1;fontFamily=Lucida Console;fontSize=20;strokeColor=#6E67A1;strokeWidth=2;fillColor=#d0cee2;" parent="1" vertex="1">
          <mxGeometry x="595" y="368" width="100" height="40" as="geometry" />
        </mxCell>
        <mxCell id="bvwN4WITmdQyCTtZIi4v-95" value="&lt;b&gt;&lt;font style=&quot;font-size: 12px&quot; color=&quot;#6E67A1&quot;&gt;route_ID&lt;/font&gt;&lt;/b&gt;" style="text;html=1;strokeColor=none;fillColor=none;align=center;verticalAlign=middle;whiteSpace=wrap;rounded=0;fontFamily=Lucida Console;fontSize=20;fontColor=#FF8000;" parent="1" vertex="1">
          <mxGeometry x="615" y="380" width="60" height="12" as="geometry" />
        </mxCell>
        <mxCell id="bvwN4WITmdQyCTtZIi4v-96" value="" style="endArrow=none;html=1;rounded=0;fontFamily=Lucida Console;fontSize=12;fontColor=#6E67A1;strokeColor=#6E67A1;entryX=0.5;entryY=1;entryDx=0;entryDy=0;exitX=0.5;exitY=0;exitDx=0;exitDy=0;strokeWidth=2;" parent="1" source="bvwN4WITmdQyCTtZIi4v-1" target="bvwN4WITmdQyCTtZIi4v-41" edge="1">
          <mxGeometry width="50" height="50" relative="1" as="geometry">
            <mxPoint x="330" y="500" as="sourcePoint" />
            <mxPoint x="380" y="450" as="targetPoint" />
          </mxGeometry>
        </mxCell>
        <mxCell id="bvwN4WITmdQyCTtZIi4v-97" value="" style="endArrow=none;html=1;rounded=0;fontFamily=Lucida Console;fontSize=12;fontColor=#6E67A1;strokeColor=#6E67A1;entryX=0.5;entryY=1;entryDx=0;entryDy=0;exitX=0.5;exitY=0;exitDx=0;exitDy=0;strokeWidth=2;" parent="1" source="bvwN4WITmdQyCTtZIi4v-1" target="bvwN4WITmdQyCTtZIi4v-45" edge="1">
          <mxGeometry width="50" height="50" relative="1" as="geometry">
            <mxPoint x="229.99999999999977" y="170" as="sourcePoint" />
            <mxPoint x="159.99999999999977" y="130" as="targetPoint" />
          </mxGeometry>
        </mxCell>
        <mxCell id="bvwN4WITmdQyCTtZIi4v-98" value="" style="endArrow=none;html=1;rounded=0;fontFamily=Lucida Console;fontSize=12;fontColor=#6E67A1;strokeColor=#6E67A1;entryX=0.5;entryY=1;entryDx=0;entryDy=0;strokeWidth=2;" parent="1" target="bvwN4WITmdQyCTtZIi4v-43" edge="1">
          <mxGeometry width="50" height="50" relative="1" as="geometry">
            <mxPoint x="220" y="160" as="sourcePoint" />
            <mxPoint x="169.99999999999977" y="140" as="targetPoint" />
          </mxGeometry>
        </mxCell>
        <mxCell id="bvwN4WITmdQyCTtZIi4v-99" value="" style="endArrow=none;html=1;rounded=0;fontFamily=Lucida Console;fontSize=12;fontColor=#6E67A1;strokeColor=#6E67A1;entryX=0.5;entryY=1;entryDx=0;entryDy=0;exitX=0.5;exitY=0;exitDx=0;exitDy=0;strokeWidth=2;" parent="1" source="bvwN4WITmdQyCTtZIi4v-4" target="bvwN4WITmdQyCTtZIi4v-47" edge="1">
          <mxGeometry width="50" height="50" relative="1" as="geometry">
            <mxPoint x="664.9999999999998" y="160" as="sourcePoint" />
            <mxPoint x="594.9999999999998" y="120" as="targetPoint" />
          </mxGeometry>
        </mxCell>
        <mxCell id="bvwN4WITmdQyCTtZIi4v-100" value="" style="endArrow=none;html=1;rounded=0;fontFamily=Lucida Console;fontSize=12;fontColor=#6E67A1;strokeColor=#6E67A1;entryX=0.5;entryY=1;entryDx=0;entryDy=0;exitX=0.5;exitY=0;exitDx=0;exitDy=0;strokeWidth=2;" parent="1" source="bvwN4WITmdQyCTtZIi4v-4" target="bvwN4WITmdQyCTtZIi4v-49" edge="1">
          <mxGeometry width="50" height="50" relative="1" as="geometry">
            <mxPoint x="259.9999999999998" y="200" as="sourcePoint" />
            <mxPoint x="189.99999999999977" y="160" as="targetPoint" />
          </mxGeometry>
        </mxCell>
        <mxCell id="bvwN4WITmdQyCTtZIi4v-101" value="" style="endArrow=none;html=1;rounded=0;fontFamily=Lucida Console;fontSize=12;fontColor=#6E67A1;strokeColor=#6E67A1;exitX=0.5;exitY=0;exitDx=0;exitDy=0;strokeWidth=2;entryX=0.5;entryY=1;entryDx=0;entryDy=0;" parent="1" source="bvwN4WITmdQyCTtZIi4v-47" target="bvwN4WITmdQyCTtZIi4v-51" edge="1">
          <mxGeometry width="50" height="50" relative="1" as="geometry">
            <mxPoint x="609.9999999999998" y="112" as="sourcePoint" />
            <mxPoint x="550" y="70" as="targetPoint" />
          </mxGeometry>
        </mxCell>
        <mxCell id="bvwN4WITmdQyCTtZIi4v-102" value="" style="endArrow=none;html=1;rounded=0;fontFamily=Lucida Console;fontSize=12;fontColor=#6E67A1;strokeColor=#6E67A1;entryX=0.5;entryY=1;entryDx=0;entryDy=0;exitX=0.5;exitY=0;exitDx=0;exitDy=0;strokeWidth=2;" parent="1" source="bvwN4WITmdQyCTtZIi4v-47" target="bvwN4WITmdQyCTtZIi4v-53" edge="1">
          <mxGeometry width="50" height="50" relative="1" as="geometry">
            <mxPoint x="279.9999999999998" y="220" as="sourcePoint" />
            <mxPoint x="209.99999999999977" y="180" as="targetPoint" />
          </mxGeometry>
        </mxCell>
        <mxCell id="bvwN4WITmdQyCTtZIi4v-103" value="" style="endArrow=none;html=1;rounded=0;fontFamily=Lucida Console;fontSize=12;fontColor=#6E67A1;strokeColor=#6E67A1;entryX=1;entryY=0.5;entryDx=0;entryDy=0;strokeWidth=2;" parent="1" target="bvwN4WITmdQyCTtZIi4v-55" edge="1">
          <mxGeometry width="50" height="50" relative="1" as="geometry">
            <mxPoint x="340" y="300" as="sourcePoint" />
            <mxPoint x="-155.00000000000023" y="180" as="targetPoint" />
          </mxGeometry>
        </mxCell>
        <mxCell id="bvwN4WITmdQyCTtZIi4v-104" value="" style="endArrow=none;html=1;rounded=0;fontFamily=Lucida Console;fontSize=12;fontColor=#6E67A1;strokeColor=#6E67A1;entryX=1;entryY=0.5;entryDx=0;entryDy=0;exitX=0;exitY=0.5;exitDx=0;exitDy=0;strokeWidth=2;" parent="1" source="bvwN4WITmdQyCTtZIi4v-8" target="bvwN4WITmdQyCTtZIi4v-57" edge="1">
          <mxGeometry width="50" height="50" relative="1" as="geometry">
            <mxPoint x="165" y="290" as="sourcePoint" />
            <mxPoint x="-145.00000000000023" y="190" as="targetPoint" />
          </mxGeometry>
        </mxCell>
        <mxCell id="bvwN4WITmdQyCTtZIi4v-105" value="" style="endArrow=none;html=1;rounded=0;fontFamily=Lucida Console;fontSize=12;fontColor=#6E67A1;strokeColor=#6E67A1;entryX=1;entryY=0.5;entryDx=0;entryDy=0;exitX=0;exitY=0.5;exitDx=0;exitDy=0;strokeWidth=2;" parent="1" source="bvwN4WITmdQyCTtZIi4v-8" target="bvwN4WITmdQyCTtZIi4v-61" edge="1">
          <mxGeometry width="50" height="50" relative="1" as="geometry">
            <mxPoint x="165" y="290" as="sourcePoint" />
            <mxPoint x="-135.00000000000023" y="200" as="targetPoint" />
          </mxGeometry>
        </mxCell>
        <mxCell id="bvwN4WITmdQyCTtZIi4v-106" value="" style="endArrow=none;html=1;rounded=0;fontFamily=Lucida Console;fontSize=12;fontColor=#6E67A1;strokeColor=#6E67A1;entryX=1;entryY=0.5;entryDx=0;entryDy=0;strokeWidth=2;exitX=0;exitY=0.5;exitDx=0;exitDy=0;" parent="1" source="bvwN4WITmdQyCTtZIi4v-57" target="bvwN4WITmdQyCTtZIi4v-63" edge="1">
          <mxGeometry width="50" height="50" relative="1" as="geometry">
            <mxPoint x="620" y="290" as="sourcePoint" />
            <mxPoint x="454.9999999999998" y="205" as="targetPoint" />
          </mxGeometry>
        </mxCell>
        <mxCell id="bvwN4WITmdQyCTtZIi4v-107" value="" style="endArrow=none;html=1;rounded=0;fontFamily=Lucida Console;fontSize=12;fontColor=#6E67A1;strokeColor=#6E67A1;entryX=1;entryY=0.5;entryDx=0;entryDy=0;strokeWidth=2;exitX=0;exitY=0.5;exitDx=0;exitDy=0;" parent="1" source="bvwN4WITmdQyCTtZIi4v-57" target="bvwN4WITmdQyCTtZIi4v-65" edge="1">
          <mxGeometry width="50" height="50" relative="1" as="geometry">
            <mxPoint x="740" y="270" as="sourcePoint" />
            <mxPoint x="464.9999999999998" y="215" as="targetPoint" />
          </mxGeometry>
        </mxCell>
        <mxCell id="bvwN4WITmdQyCTtZIi4v-108" value="" style="endArrow=none;html=1;rounded=0;fontFamily=Lucida Console;fontSize=12;fontColor=#6E67A1;strokeColor=#6E67A1;entryX=1;entryY=0.5;entryDx=0;entryDy=0;strokeWidth=2;exitX=0;exitY=0.5;exitDx=0;exitDy=0;" parent="1" source="bvwN4WITmdQyCTtZIi4v-57" target="bvwN4WITmdQyCTtZIi4v-67" edge="1">
          <mxGeometry width="50" height="50" relative="1" as="geometry">
            <mxPoint x="760" y="280" as="sourcePoint" />
            <mxPoint x="474.9999999999998" y="225" as="targetPoint" />
          </mxGeometry>
        </mxCell>
        <mxCell id="bvwN4WITmdQyCTtZIi4v-109" value="" style="endArrow=none;html=1;rounded=0;fontFamily=Lucida Console;fontSize=12;fontColor=#6E67A1;strokeColor=#6E67A1;entryX=1;entryY=0.5;entryDx=0;entryDy=0;exitX=0;exitY=0.5;exitDx=0;exitDy=0;strokeWidth=2;" parent="1" source="bvwN4WITmdQyCTtZIi4v-94" target="bvwN4WITmdQyCTtZIi4v-12" edge="1">
          <mxGeometry width="50" height="50" relative="1" as="geometry">
            <mxPoint x="349.9999999999998" y="244" as="sourcePoint" />
            <mxPoint x="279.9999999999998" y="204" as="targetPoint" />
          </mxGeometry>
        </mxCell>
        <mxCell id="bvwN4WITmdQyCTtZIi4v-110" value="" style="endArrow=none;html=1;rounded=0;fontFamily=Lucida Console;fontSize=12;fontColor=#6E67A1;strokeColor=#6E67A1;entryX=0;entryY=0.5;entryDx=0;entryDy=0;exitX=1;exitY=0.5;exitDx=0;exitDy=0;strokeWidth=2;" parent="1" source="bvwN4WITmdQyCTtZIi4v-12" target="bvwN4WITmdQyCTtZIi4v-71" edge="1">
          <mxGeometry width="50" height="50" relative="1" as="geometry">
            <mxPoint x="359.9999999999998" y="254" as="sourcePoint" />
            <mxPoint x="289.9999999999998" y="214" as="targetPoint" />
          </mxGeometry>
        </mxCell>
        <mxCell id="bvwN4WITmdQyCTtZIi4v-111" value="" style="endArrow=none;html=1;rounded=0;fontFamily=Lucida Console;fontSize=12;fontColor=#6E67A1;strokeColor=#6E67A1;entryX=1;entryY=0.5;entryDx=0;entryDy=0;exitX=0;exitY=0.5;exitDx=0;exitDy=0;strokeWidth=2;" parent="1" source="bvwN4WITmdQyCTtZIi4v-74" target="bvwN4WITmdQyCTtZIi4v-71" edge="1">
          <mxGeometry width="50" height="50" relative="1" as="geometry">
            <mxPoint x="369.9999999999998" y="208" as="sourcePoint" />
            <mxPoint x="299.9999999999998" y="168" as="targetPoint" />
          </mxGeometry>
        </mxCell>
        <mxCell id="bvwN4WITmdQyCTtZIi4v-112" value="" style="endArrow=none;html=1;rounded=0;fontFamily=Lucida Console;fontSize=12;fontColor=#6E67A1;strokeColor=#6E67A1;exitX=0;exitY=0.5;exitDx=0;exitDy=0;strokeWidth=2;entryX=1;entryY=0.5;entryDx=0;entryDy=0;" parent="1" source="bvwN4WITmdQyCTtZIi4v-76" target="bvwN4WITmdQyCTtZIi4v-71" edge="1">
          <mxGeometry width="50" height="50" relative="1" as="geometry">
            <mxPoint x="379.9999999999998" y="218" as="sourcePoint" />
            <mxPoint x="700" y="408" as="targetPoint" />
          </mxGeometry>
        </mxCell>
        <mxCell id="bvwN4WITmdQyCTtZIi4v-113" value="" style="endArrow=none;html=1;rounded=0;fontFamily=Lucida Console;fontSize=12;fontColor=#6E67A1;strokeColor=#6E67A1;entryX=0.5;entryY=0;entryDx=0;entryDy=0;exitX=0.5;exitY=1;exitDx=0;exitDy=0;strokeWidth=2;" parent="1" source="bvwN4WITmdQyCTtZIi4v-78" target="bvwN4WITmdQyCTtZIi4v-15" edge="1">
          <mxGeometry width="50" height="50" relative="1" as="geometry">
            <mxPoint x="389.9999999999998" y="390" as="sourcePoint" />
            <mxPoint x="319.9999999999998" y="350" as="targetPoint" />
          </mxGeometry>
        </mxCell>
        <mxCell id="bvwN4WITmdQyCTtZIi4v-114" value="" style="endArrow=none;html=1;rounded=0;fontFamily=Lucida Console;fontSize=12;fontColor=#6E67A1;strokeColor=#6E67A1;entryX=0.5;entryY=0;entryDx=0;entryDy=0;exitX=0.5;exitY=1;exitDx=0;exitDy=0;strokeWidth=2;" parent="1" source="bvwN4WITmdQyCTtZIi4v-80" target="bvwN4WITmdQyCTtZIi4v-78" edge="1">
          <mxGeometry width="50" height="50" relative="1" as="geometry">
            <mxPoint x="439.9999999999998" y="420" as="sourcePoint" />
            <mxPoint x="369.9999999999998" y="380" as="targetPoint" />
          </mxGeometry>
        </mxCell>
        <mxCell id="bvwN4WITmdQyCTtZIi4v-115" value="" style="endArrow=none;html=1;rounded=0;fontFamily=Lucida Console;fontSize=12;fontColor=#6E67A1;strokeColor=#6E67A1;entryX=0.5;entryY=0;entryDx=0;entryDy=0;exitX=0.5;exitY=1;exitDx=0;exitDy=0;strokeWidth=2;" parent="1" source="bvwN4WITmdQyCTtZIi4v-82" target="bvwN4WITmdQyCTtZIi4v-78" edge="1">
          <mxGeometry width="50" height="50" relative="1" as="geometry">
            <mxPoint x="449.9999999999998" y="430" as="sourcePoint" />
            <mxPoint x="379.9999999999998" y="390" as="targetPoint" />
          </mxGeometry>
        </mxCell>
        <mxCell id="bvwN4WITmdQyCTtZIi4v-116" value="" style="endArrow=none;html=1;rounded=0;fontFamily=Lucida Console;fontSize=12;fontColor=#6E67A1;strokeColor=#6E67A1;entryX=0.5;entryY=0;entryDx=0;entryDy=0;exitX=0.5;exitY=1;exitDx=0;exitDy=0;strokeWidth=2;" parent="1" source="bvwN4WITmdQyCTtZIi4v-84" target="bvwN4WITmdQyCTtZIi4v-78" edge="1">
          <mxGeometry width="50" height="50" relative="1" as="geometry">
            <mxPoint x="459.9999999999998" y="440" as="sourcePoint" />
            <mxPoint x="389.9999999999998" y="400" as="targetPoint" />
          </mxGeometry>
        </mxCell>
        <mxCell id="bvwN4WITmdQyCTtZIi4v-117" value="" style="endArrow=none;html=1;rounded=0;fontFamily=Lucida Console;fontSize=12;fontColor=#6E67A1;strokeColor=#6E67A1;entryX=1;entryY=0.5;entryDx=0;entryDy=0;exitX=0.5;exitY=0;exitDx=0;exitDy=0;strokeWidth=2;" parent="1" source="bvwN4WITmdQyCTtZIi4v-18" target="bvwN4WITmdQyCTtZIi4v-86" edge="1">
          <mxGeometry width="50" height="50" relative="1" as="geometry">
            <mxPoint x="429.9999999999998" y="430" as="sourcePoint" />
            <mxPoint x="359.9999999999998" y="390" as="targetPoint" />
          </mxGeometry>
        </mxCell>
        <mxCell id="bvwN4WITmdQyCTtZIi4v-118" value="" style="endArrow=none;html=1;rounded=0;fontFamily=Lucida Console;fontSize=12;fontColor=#6E67A1;strokeColor=#6E67A1;entryX=0.5;entryY=1;entryDx=0;entryDy=0;exitX=0.5;exitY=0;exitDx=0;exitDy=0;strokeWidth=2;" parent="1" source="bvwN4WITmdQyCTtZIi4v-18" target="bvwN4WITmdQyCTtZIi4v-88" edge="1">
          <mxGeometry width="50" height="50" relative="1" as="geometry">
            <mxPoint x="439.9999999999998" y="440" as="sourcePoint" />
            <mxPoint x="369.9999999999998" y="400" as="targetPoint" />
          </mxGeometry>
        </mxCell>
        <mxCell id="bvwN4WITmdQyCTtZIi4v-119" value="" style="endArrow=none;html=1;rounded=0;fontFamily=Lucida Console;fontSize=12;fontColor=#6E67A1;strokeColor=#6E67A1;entryX=0.5;entryY=0;entryDx=0;entryDy=0;exitX=0.5;exitY=1;exitDx=0;exitDy=0;strokeWidth=2;" parent="1" source="bvwN4WITmdQyCTtZIi4v-90" target="bvwN4WITmdQyCTtZIi4v-18" edge="1">
          <mxGeometry width="50" height="50" relative="1" as="geometry">
            <mxPoint x="449.9999999999998" y="450" as="sourcePoint" />
            <mxPoint x="379.9999999999998" y="410" as="targetPoint" />
          </mxGeometry>
        </mxCell>
        <mxCell id="bvwN4WITmdQyCTtZIi4v-120" value="" style="endArrow=none;html=1;rounded=0;fontFamily=Lucida Console;fontSize=12;fontColor=#6E67A1;strokeColor=#6E67A1;entryX=0;entryY=0.5;entryDx=0;entryDy=0;exitX=0.5;exitY=0;exitDx=0;exitDy=0;strokeWidth=2;" parent="1" source="bvwN4WITmdQyCTtZIi4v-18" target="bvwN4WITmdQyCTtZIi4v-92" edge="1">
          <mxGeometry width="50" height="50" relative="1" as="geometry">
            <mxPoint x="459.9999999999998" y="460" as="sourcePoint" />
            <mxPoint x="389.9999999999998" y="420" as="targetPoint" />
          </mxGeometry>
        </mxCell>
        <mxCell id="bvwN4WITmdQyCTtZIi4v-121" value="" style="endArrow=none;html=1;rounded=0;fontFamily=Lucida Console;fontSize=12;fontColor=#6E67A1;strokeColor=#6E67A1;strokeWidth=2;" parent="1" edge="1">
          <mxGeometry width="50" height="50" relative="1" as="geometry">
            <mxPoint x="115" y="110" as="sourcePoint" />
            <mxPoint x="185" y="110" as="targetPoint" />
          </mxGeometry>
        </mxCell>
        <mxCell id="bvwN4WITmdQyCTtZIi4v-123" value="" style="endArrow=none;html=1;rounded=0;fontFamily=Lucida Console;fontSize=12;fontColor=#6E67A1;strokeColor=#6E67A1;strokeWidth=2;" parent="1" edge="1">
          <mxGeometry width="50" height="50" relative="1" as="geometry">
            <mxPoint x="564.9999999999998" y="109" as="sourcePoint" />
            <mxPoint x="634.9999999999998" y="109" as="targetPoint" />
          </mxGeometry>
        </mxCell>
        <mxCell id="bvwN4WITmdQyCTtZIi4v-124" value="" style="endArrow=none;html=1;rounded=0;fontFamily=Lucida Console;fontSize=12;fontColor=#6E67A1;strokeColor=#6E67A1;strokeWidth=2;" parent="1" edge="1">
          <mxGeometry width="50" height="50" relative="1" as="geometry">
            <mxPoint x="234.99999999999977" y="259" as="sourcePoint" />
            <mxPoint x="304.9999999999998" y="259" as="targetPoint" />
          </mxGeometry>
        </mxCell>
        <mxCell id="bvwN4WITmdQyCTtZIi4v-125" value="" style="endArrow=none;html=1;rounded=0;fontFamily=Lucida Console;fontSize=12;fontColor=#6E67A1;strokeColor=#6E67A1;strokeWidth=2;" parent="1" edge="1">
          <mxGeometry width="50" height="50" relative="1" as="geometry">
            <mxPoint x="610.9999999999998" y="397" as="sourcePoint" />
            <mxPoint x="680.9999999999998" y="397" as="targetPoint" />
          </mxGeometry>
        </mxCell>
        <mxCell id="bvwN4WITmdQyCTtZIi4v-126" value="" style="endArrow=none;html=1;rounded=0;fontFamily=Lucida Console;fontSize=12;fontColor=#6E67A1;strokeColor=#6E67A1;strokeWidth=2;" parent="1" edge="1">
          <mxGeometry width="50" height="50" relative="1" as="geometry">
            <mxPoint x="254.99999999999977" y="635" as="sourcePoint" />
            <mxPoint x="324.9999999999998" y="635" as="targetPoint" />
          </mxGeometry>
        </mxCell>
        <mxCell id="bvwN4WITmdQyCTtZIi4v-128" value="" style="endArrow=none;html=1;rounded=0;fontFamily=Lucida Console;fontSize=12;fontColor=#6E67A1;strokeColor=#6E67A1;strokeWidth=2;" parent="1" edge="1">
          <mxGeometry width="50" height="50" relative="1" as="geometry">
            <mxPoint x="515.9999999999998" y="670" as="sourcePoint" />
            <mxPoint x="585.9999999999998" y="670" as="targetPoint" />
          </mxGeometry>
        </mxCell>
        <mxCell id="bvwN4WITmdQyCTtZIi4v-130" value="" style="rounded=0;whiteSpace=wrap;html=1;fillColor=#dae8fc;strokeColor=#6c8ebf;strokeWidth=2;" parent="1" vertex="1">
          <mxGeometry x="-280" y="360" width="200" height="40" as="geometry" />
        </mxCell>
        <mxCell id="bvwN4WITmdQyCTtZIi4v-131" value="&lt;font style=&quot;font-size: 20px&quot; face=&quot;Lucida Console&quot; color=&quot;#6C8EBF&quot;&gt;TEMPLATE&lt;/font&gt;" style="text;html=1;strokeColor=none;fillColor=none;align=center;verticalAlign=middle;whiteSpace=wrap;rounded=0;" parent="1" vertex="1">
          <mxGeometry x="-210" y="365" width="60" height="30" as="geometry" />
        </mxCell>
        <mxCell id="bvwN4WITmdQyCTtZIi4v-132" value="" style="rhombus;whiteSpace=wrap;html=1;fontFamily=Lucida Console;fontSize=20;strokeWidth=2;fillColor=#fad7ac;strokeColor=#FF8000;fontStyle=1" parent="1" vertex="1">
          <mxGeometry x="-270" y="414" width="160" height="80" as="geometry" />
        </mxCell>
        <mxCell id="bvwN4WITmdQyCTtZIi4v-133" value="&lt;div&gt;&lt;font color=&quot;#FF8000&quot;&gt;template&lt;/font&gt;&lt;/div&gt;" style="text;html=1;strokeColor=none;fillColor=none;align=center;verticalAlign=middle;whiteSpace=wrap;rounded=0;fontFamily=Lucida Console;fontSize=20;fontColor=#6C8EBF;fontStyle=0" parent="1" vertex="1">
          <mxGeometry x="-220" y="439" width="60" height="30" as="geometry" />
        </mxCell>
        <mxCell id="bvwN4WITmdQyCTtZIi4v-134" value="" style="ellipse;whiteSpace=wrap;html=1;fontFamily=Lucida Console;fontSize=20;strokeColor=#6E67A1;strokeWidth=2;fillColor=#d0cee2;" parent="1" vertex="1">
          <mxGeometry x="-230" y="523" width="100" height="40" as="geometry" />
        </mxCell>
        <mxCell id="bvwN4WITmdQyCTtZIi4v-135" value="&lt;font style=&quot;font-size: 12px&quot; color=&quot;#6E67A1&quot;&gt;template&lt;/font&gt;" style="text;html=1;strokeColor=none;fillColor=none;align=center;verticalAlign=middle;whiteSpace=wrap;rounded=0;fontFamily=Lucida Console;fontSize=20;fontColor=#FF8000;" parent="1" vertex="1">
          <mxGeometry x="-210" y="535" width="60" height="12" as="geometry" />
        </mxCell>
        <mxCell id="bvwN4WITmdQyCTtZIi4v-138" value="" style="ellipse;whiteSpace=wrap;html=1;fontFamily=Lucida Console;fontSize=20;strokeColor=#6E67A1;strokeWidth=2;fillColor=#FFFFFF;" parent="1" vertex="1">
          <mxGeometry x="-230" y="583" width="100" height="40" as="geometry" />
        </mxCell>
        <mxCell id="bvwN4WITmdQyCTtZIi4v-139" value="" style="ellipse;whiteSpace=wrap;html=1;fontFamily=Lucida Console;fontSize=20;strokeColor=#6E67A1;strokeWidth=2;fillColor=#d0cee2;" parent="1" vertex="1">
          <mxGeometry x="-225" y="586" width="90" height="34" as="geometry" />
        </mxCell>
        <mxCell id="bvwN4WITmdQyCTtZIi4v-140" value="&lt;div&gt;&lt;font style=&quot;font-size: 12px&quot; color=&quot;#6E67A1&quot;&gt;template&lt;/font&gt;&lt;/div&gt;" style="text;html=1;strokeColor=none;fillColor=none;align=center;verticalAlign=middle;whiteSpace=wrap;rounded=0;fontFamily=Lucida Console;fontSize=20;fontColor=#FF8000;" parent="1" vertex="1">
          <mxGeometry x="-210" y="595" width="60" height="12" as="geometry" />
        </mxCell>
        <mxCell id="bvwN4WITmdQyCTtZIi4v-141" value="" style="rounded=0;whiteSpace=wrap;html=1;fillColor=#dae8fc;strokeColor=#6c8ebf;strokeWidth=2;" parent="1" vertex="1">
          <mxGeometry x="120" y="944" width="200" height="40" as="geometry" />
        </mxCell>
        <mxCell id="bvwN4WITmdQyCTtZIi4v-142" value="&lt;font style=&quot;font-size: 20px&quot; face=&quot;Lucida Console&quot; color=&quot;#6C8EBF&quot;&gt;RESERVATION&lt;/font&gt;" style="text;html=1;strokeColor=none;fillColor=none;align=center;verticalAlign=middle;whiteSpace=wrap;rounded=0;" parent="1" vertex="1">
          <mxGeometry x="190" y="949" width="60" height="30" as="geometry" />
        </mxCell>
        <mxCell id="bvwN4WITmdQyCTtZIi4v-145" value="" style="rounded=0;whiteSpace=wrap;html=1;fillColor=#dae8fc;strokeColor=#6c8ebf;strokeWidth=2;" parent="1" vertex="1">
          <mxGeometry x="120" y="400" width="200" height="40" as="geometry" />
        </mxCell>
        <mxCell id="bvwN4WITmdQyCTtZIi4v-146" value="&lt;font style=&quot;font-size: 20px&quot; face=&quot;Lucida Console&quot; color=&quot;#6C8EBF&quot;&gt;CLOCK&lt;/font&gt;" style="text;html=1;strokeColor=none;fillColor=none;align=center;verticalAlign=middle;whiteSpace=wrap;rounded=0;" parent="1" vertex="1">
          <mxGeometry x="190" y="405" width="60" height="30" as="geometry" />
        </mxCell>
        <mxCell id="bvwN4WITmdQyCTtZIi4v-147" value="" style="ellipse;whiteSpace=wrap;html=1;fontFamily=Lucida Console;fontSize=20;strokeColor=#6E67A1;strokeWidth=2;fillColor=#d0cee2;" parent="1" vertex="1">
          <mxGeometry x="120" y="472" width="100" height="40" as="geometry" />
        </mxCell>
        <mxCell id="bvwN4WITmdQyCTtZIi4v-148" value="&lt;b&gt;&lt;font style=&quot;font-size: 12px&quot; color=&quot;#6E67A1&quot;&gt;p_date&lt;/font&gt;&lt;/b&gt;" style="text;html=1;strokeColor=none;fillColor=none;align=center;verticalAlign=middle;whiteSpace=wrap;rounded=0;fontFamily=Lucida Console;fontSize=20;fontColor=#FF8000;" parent="1" vertex="1">
          <mxGeometry x="140" y="484" width="60" height="12" as="geometry" />
        </mxCell>
        <mxCell id="bvwN4WITmdQyCTtZIi4v-149" value="" style="endArrow=none;html=1;rounded=0;fontFamily=Lucida Console;fontSize=12;fontColor=#6E67A1;strokeColor=#6E67A1;entryX=0.5;entryY=1;entryDx=0;entryDy=0;exitX=0.5;exitY=0;exitDx=0;exitDy=0;strokeWidth=2;" parent="1" edge="1">
          <mxGeometry width="50" height="50" relative="1" as="geometry">
            <mxPoint x="-155" y="330" as="sourcePoint" />
            <mxPoint x="-225" y="290" as="targetPoint" />
          </mxGeometry>
        </mxCell>
        <mxCell id="bvwN4WITmdQyCTtZIi4v-150" value="" style="endArrow=none;html=1;rounded=0;fontFamily=Lucida Console;fontSize=12;fontColor=#6E67A1;strokeColor=#6E67A1;entryX=0.5;entryY=0;entryDx=0;entryDy=0;exitX=0.5;exitY=1;exitDx=0;exitDy=0;strokeWidth=2;" parent="1" target="bvwN4WITmdQyCTtZIi4v-147" edge="1">
          <mxGeometry width="50" height="50" relative="1" as="geometry">
            <mxPoint x="220" y="440" as="sourcePoint" />
            <mxPoint x="240" y="470" as="targetPoint" />
          </mxGeometry>
        </mxCell>
        <mxCell id="bvwN4WITmdQyCTtZIi4v-151" value="" style="endArrow=none;html=1;rounded=0;fontFamily=Lucida Console;fontSize=12;fontColor=#6E67A1;strokeColor=#6E67A1;strokeWidth=2;" parent="1" edge="1">
          <mxGeometry width="50" height="50" relative="1" as="geometry">
            <mxPoint x="-230" y="252" as="sourcePoint" />
            <mxPoint x="-160" y="252" as="targetPoint" />
          </mxGeometry>
        </mxCell>
        <mxCell id="bvwN4WITmdQyCTtZIi4v-152" value="" style="endArrow=none;html=1;rounded=0;fontFamily=Lucida Console;fontSize=12;fontColor=#6E67A1;strokeColor=#6E67A1;strokeWidth=2;" parent="1" edge="1">
          <mxGeometry width="50" height="50" relative="1" as="geometry">
            <mxPoint x="136" y="502" as="sourcePoint" />
            <mxPoint x="206" y="502" as="targetPoint" />
          </mxGeometry>
        </mxCell>
        <mxCell id="bvwN4WITmdQyCTtZIi4v-153" value="" style="rounded=0;whiteSpace=wrap;html=1;fillColor=#dae8fc;strokeColor=#6c8ebf;strokeWidth=2;" parent="1" vertex="1">
          <mxGeometry x="561" y="1048" width="200" height="40" as="geometry" />
        </mxCell>
        <mxCell id="bvwN4WITmdQyCTtZIi4v-154" value="&lt;font style=&quot;font-size: 20px&quot; face=&quot;Lucida Console&quot; color=&quot;#6C8EBF&quot;&gt;PASSENGER&lt;/font&gt;" style="text;html=1;strokeColor=none;fillColor=none;align=center;verticalAlign=middle;whiteSpace=wrap;rounded=0;" parent="1" vertex="1">
          <mxGeometry x="631" y="1053" width="60" height="30" as="geometry" />
        </mxCell>
        <mxCell id="bvwN4WITmdQyCTtZIi4v-155" value="" style="ellipse;whiteSpace=wrap;html=1;fontFamily=Lucida Console;fontSize=20;strokeColor=#6E67A1;strokeWidth=2;fillColor=#d0cee2;" parent="1" vertex="1">
          <mxGeometry x="476" y="1128" width="100" height="40" as="geometry" />
        </mxCell>
        <mxCell id="bvwN4WITmdQyCTtZIi4v-156" value="&lt;b&gt;&lt;font style=&quot;font-size: 12px&quot; color=&quot;#6E67A1&quot;&gt;customer_ID&lt;/font&gt;&lt;/b&gt;" style="text;html=1;strokeColor=none;fillColor=none;align=center;verticalAlign=middle;whiteSpace=wrap;rounded=0;fontFamily=Lucida Console;fontSize=20;fontColor=#FF8000;" parent="1" vertex="1">
          <mxGeometry x="496" y="1140" width="60" height="12" as="geometry" />
        </mxCell>
        <mxCell id="bvwN4WITmdQyCTtZIi4v-157" value="" style="ellipse;whiteSpace=wrap;html=1;fontFamily=Lucida Console;fontSize=20;strokeColor=#6E67A1;strokeWidth=2;fillColor=#d0cee2;" parent="1" vertex="1">
          <mxGeometry x="581" y="1128" width="100" height="40" as="geometry" />
        </mxCell>
        <mxCell id="bvwN4WITmdQyCTtZIi4v-158" value="&lt;font style=&quot;font-size: 12px&quot; color=&quot;#6E67A1&quot;&gt;first_name&lt;/font&gt;" style="text;html=1;strokeColor=none;fillColor=none;align=center;verticalAlign=middle;whiteSpace=wrap;rounded=0;fontFamily=Lucida Console;fontSize=20;fontColor=#FF8000;" parent="1" vertex="1">
          <mxGeometry x="601" y="1140" width="60" height="12" as="geometry" />
        </mxCell>
        <mxCell id="bvwN4WITmdQyCTtZIi4v-159" value="" style="ellipse;whiteSpace=wrap;html=1;fontFamily=Lucida Console;fontSize=20;strokeColor=#6E67A1;strokeWidth=2;fillColor=#d0cee2;" parent="1" vertex="1">
          <mxGeometry x="686" y="1128" width="100" height="40" as="geometry" />
        </mxCell>
        <mxCell id="bvwN4WITmdQyCTtZIi4v-160" value="&lt;font style=&quot;font-size: 12px&quot; color=&quot;#6E67A1&quot;&gt;last_name&lt;/font&gt;" style="text;html=1;strokeColor=none;fillColor=none;align=center;verticalAlign=middle;whiteSpace=wrap;rounded=0;fontFamily=Lucida Console;fontSize=20;fontColor=#FF8000;" parent="1" vertex="1">
          <mxGeometry x="706" y="1140" width="60" height="12" as="geometry" />
        </mxCell>
        <mxCell id="bvwN4WITmdQyCTtZIi4v-161" value="" style="ellipse;whiteSpace=wrap;html=1;fontFamily=Lucida Console;fontSize=20;strokeColor=#6E67A1;strokeWidth=2;fillColor=#d0cee2;" parent="1" vertex="1">
          <mxGeometry x="786" y="1095.5" width="100" height="40" as="geometry" />
        </mxCell>
        <mxCell id="bvwN4WITmdQyCTtZIi4v-162" value="&lt;font style=&quot;font-size: 12px&quot; color=&quot;#6E67A1&quot;&gt;address&lt;/font&gt;" style="text;html=1;strokeColor=none;fillColor=none;align=center;verticalAlign=middle;whiteSpace=wrap;rounded=0;fontFamily=Lucida Console;fontSize=20;fontColor=#FF8000;" parent="1" vertex="1">
          <mxGeometry x="806" y="1107.5" width="60" height="12" as="geometry" />
        </mxCell>
        <mxCell id="bvwN4WITmdQyCTtZIi4v-165" value="" style="ellipse;whiteSpace=wrap;html=1;fontFamily=Lucida Console;fontSize=20;strokeColor=#6E67A1;strokeWidth=2;fillColor=#d0cee2;" parent="1" vertex="1">
          <mxGeometry x="781" y="1000.5" width="100" height="40" as="geometry" />
        </mxCell>
        <mxCell id="bvwN4WITmdQyCTtZIi4v-166" value="&lt;font style=&quot;font-size: 12px&quot; color=&quot;#6E67A1&quot;&gt;email&lt;/font&gt;" style="text;html=1;strokeColor=none;fillColor=none;align=center;verticalAlign=middle;whiteSpace=wrap;rounded=0;fontFamily=Lucida Console;fontSize=20;fontColor=#FF8000;" parent="1" vertex="1">
          <mxGeometry x="801" y="1012.5" width="60" height="12" as="geometry" />
        </mxCell>
        <mxCell id="bvwN4WITmdQyCTtZIi4v-167" value="" style="ellipse;whiteSpace=wrap;html=1;fontFamily=Lucida Console;fontSize=20;strokeColor=#6E67A1;strokeWidth=2;fillColor=#FFFFFF;" parent="1" vertex="1">
          <mxGeometry x="786" y="1047.5" width="100" height="40" as="geometry" />
        </mxCell>
        <mxCell id="bvwN4WITmdQyCTtZIi4v-168" value="" style="ellipse;whiteSpace=wrap;html=1;fontFamily=Lucida Console;fontSize=20;strokeColor=#6E67A1;strokeWidth=2;fillColor=#d0cee2;" parent="1" vertex="1">
          <mxGeometry x="791" y="1050.5" width="90" height="34" as="geometry" />
        </mxCell>
        <mxCell id="bvwN4WITmdQyCTtZIi4v-169" value="&lt;div&gt;&lt;font style=&quot;font-size: 12px&quot; color=&quot;#6E67A1&quot;&gt;phone_no&lt;/font&gt;&lt;/div&gt;" style="text;html=1;strokeColor=none;fillColor=none;align=center;verticalAlign=middle;whiteSpace=wrap;rounded=0;fontFamily=Lucida Console;fontSize=20;fontColor=#FF8000;" parent="1" vertex="1">
          <mxGeometry x="806" y="1059.5" width="60" height="12" as="geometry" />
        </mxCell>
        <mxCell id="bvwN4WITmdQyCTtZIi4v-170" value="" style="rhombus;whiteSpace=wrap;html=1;fontFamily=Lucida Console;fontSize=20;strokeWidth=2;fillColor=#fad7ac;strokeColor=#FF8000;fontStyle=1" parent="1" vertex="1">
          <mxGeometry x="580" y="924" width="160" height="80" as="geometry" />
        </mxCell>
        <mxCell id="bvwN4WITmdQyCTtZIi4v-171" value="&lt;div&gt;&lt;font color=&quot;#FF8000&quot;&gt;books&lt;/font&gt;&lt;/div&gt;" style="text;html=1;strokeColor=none;fillColor=none;align=center;verticalAlign=middle;whiteSpace=wrap;rounded=0;fontFamily=Lucida Console;fontSize=20;fontColor=#6C8EBF;fontStyle=0" parent="1" vertex="1">
          <mxGeometry x="630" y="949" width="60" height="30" as="geometry" />
        </mxCell>
        <mxCell id="bvwN4WITmdQyCTtZIi4v-172" value="" style="endArrow=none;html=1;rounded=0;fontFamily=Lucida Console;fontSize=12;fontColor=#6E67A1;strokeColor=#6E67A1;entryX=0.5;entryY=1;entryDx=0;entryDy=0;exitX=0.5;exitY=0;exitDx=0;exitDy=0;strokeWidth=2;" parent="1" source="bvwN4WITmdQyCTtZIi4v-155" target="bvwN4WITmdQyCTtZIi4v-153" edge="1">
          <mxGeometry width="50" height="50" relative="1" as="geometry">
            <mxPoint x="741" y="1248" as="sourcePoint" />
            <mxPoint x="671" y="1208" as="targetPoint" />
          </mxGeometry>
        </mxCell>
        <mxCell id="bvwN4WITmdQyCTtZIi4v-173" value="" style="endArrow=none;html=1;rounded=0;fontFamily=Lucida Console;fontSize=12;fontColor=#6E67A1;strokeColor=#6E67A1;entryX=0.5;entryY=1;entryDx=0;entryDy=0;exitX=0.5;exitY=0;exitDx=0;exitDy=0;strokeWidth=2;" parent="1" source="bvwN4WITmdQyCTtZIi4v-157" target="bvwN4WITmdQyCTtZIi4v-153" edge="1">
          <mxGeometry width="50" height="50" relative="1" as="geometry">
            <mxPoint x="536" y="1138" as="sourcePoint" />
            <mxPoint x="671" y="1098" as="targetPoint" />
          </mxGeometry>
        </mxCell>
        <mxCell id="bvwN4WITmdQyCTtZIi4v-174" value="" style="endArrow=none;html=1;rounded=0;fontFamily=Lucida Console;fontSize=12;fontColor=#6E67A1;strokeColor=#6E67A1;entryX=0.5;entryY=1;entryDx=0;entryDy=0;exitX=0.5;exitY=0;exitDx=0;exitDy=0;strokeWidth=2;" parent="1" source="bvwN4WITmdQyCTtZIi4v-159" target="bvwN4WITmdQyCTtZIi4v-153" edge="1">
          <mxGeometry width="50" height="50" relative="1" as="geometry">
            <mxPoint x="546" y="1148" as="sourcePoint" />
            <mxPoint x="681" y="1108" as="targetPoint" />
          </mxGeometry>
        </mxCell>
        <mxCell id="bvwN4WITmdQyCTtZIi4v-175" value="" style="endArrow=none;html=1;rounded=0;fontFamily=Lucida Console;fontSize=12;fontColor=#6E67A1;strokeColor=#6E67A1;entryX=1;entryY=0.5;entryDx=0;entryDy=0;exitX=0;exitY=0.5;exitDx=0;exitDy=0;strokeWidth=2;" parent="1" source="bvwN4WITmdQyCTtZIi4v-161" target="bvwN4WITmdQyCTtZIi4v-153" edge="1">
          <mxGeometry width="50" height="50" relative="1" as="geometry">
            <mxPoint x="556" y="1158" as="sourcePoint" />
            <mxPoint x="691" y="1118" as="targetPoint" />
          </mxGeometry>
        </mxCell>
        <mxCell id="bvwN4WITmdQyCTtZIi4v-176" value="" style="endArrow=none;html=1;rounded=0;fontFamily=Lucida Console;fontSize=12;fontColor=#6E67A1;strokeColor=#6E67A1;entryX=1;entryY=0.5;entryDx=0;entryDy=0;exitX=0;exitY=0.5;exitDx=0;exitDy=0;strokeWidth=2;" parent="1" source="bvwN4WITmdQyCTtZIi4v-167" target="bvwN4WITmdQyCTtZIi4v-153" edge="1">
          <mxGeometry width="50" height="50" relative="1" as="geometry">
            <mxPoint x="566" y="1168" as="sourcePoint" />
            <mxPoint x="701" y="1128" as="targetPoint" />
          </mxGeometry>
        </mxCell>
        <mxCell id="bvwN4WITmdQyCTtZIi4v-177" value="" style="endArrow=none;html=1;rounded=0;fontFamily=Lucida Console;fontSize=12;fontColor=#6E67A1;strokeColor=#6E67A1;entryX=0;entryY=0.5;entryDx=0;entryDy=0;exitX=1;exitY=0.5;exitDx=0;exitDy=0;strokeWidth=2;" parent="1" source="bvwN4WITmdQyCTtZIi4v-153" target="bvwN4WITmdQyCTtZIi4v-165" edge="1">
          <mxGeometry width="50" height="50" relative="1" as="geometry">
            <mxPoint x="576" y="1178" as="sourcePoint" />
            <mxPoint x="711" y="1138" as="targetPoint" />
          </mxGeometry>
        </mxCell>
        <mxCell id="bvwN4WITmdQyCTtZIi4v-178" value="" style="ellipse;whiteSpace=wrap;html=1;fontFamily=Lucida Console;fontSize=20;strokeColor=#6E67A1;strokeWidth=2;fillColor=#d0cee2;" parent="1" vertex="1">
          <mxGeometry x="80" y="1001.5" width="100" height="40" as="geometry" />
        </mxCell>
        <mxCell id="bvwN4WITmdQyCTtZIi4v-179" value="&lt;b&gt;&lt;font style=&quot;font-size: 12px&quot; color=&quot;#6E67A1&quot;&gt;reserv_no&lt;/font&gt;&lt;/b&gt;" style="text;html=1;strokeColor=none;fillColor=none;align=center;verticalAlign=middle;whiteSpace=wrap;rounded=0;fontFamily=Lucida Console;fontSize=20;fontColor=#FF8000;" parent="1" vertex="1">
          <mxGeometry x="105" y="1013.5" width="60" height="12" as="geometry" />
        </mxCell>
        <mxCell id="bvwN4WITmdQyCTtZIi4v-180" value="" style="ellipse;whiteSpace=wrap;html=1;fontFamily=Lucida Console;fontSize=20;strokeColor=#6E67A1;strokeWidth=2;fillColor=#d0cee2;" parent="1" vertex="1">
          <mxGeometry x="125" y="1053" width="100" height="40" as="geometry" />
        </mxCell>
        <mxCell id="bvwN4WITmdQyCTtZIi4v-181" value="&lt;font style=&quot;font-size: 12px&quot; color=&quot;#6E67A1&quot;&gt;price&lt;/font&gt;" style="text;html=1;strokeColor=none;fillColor=none;align=center;verticalAlign=middle;whiteSpace=wrap;rounded=0;fontFamily=Lucida Console;fontSize=20;fontColor=#FF8000;" parent="1" vertex="1">
          <mxGeometry x="145" y="1065" width="60" height="12" as="geometry" />
        </mxCell>
        <mxCell id="bvwN4WITmdQyCTtZIi4v-186" value="" style="ellipse;whiteSpace=wrap;html=1;fontFamily=Lucida Console;fontSize=20;strokeColor=#6E67A1;strokeWidth=2;fillColor=#d0cee2;" parent="1" vertex="1">
          <mxGeometry x="610" y="760" width="100" height="40" as="geometry" />
        </mxCell>
        <mxCell id="bvwN4WITmdQyCTtZIi4v-187" value="&lt;font style=&quot;font-size: 12px&quot; color=&quot;#6E67A1&quot;&gt;ticket_no&lt;/font&gt;" style="text;html=1;strokeColor=none;fillColor=none;align=center;verticalAlign=middle;whiteSpace=wrap;rounded=0;fontFamily=Lucida Console;fontSize=20;fontColor=#FF8000;" parent="1" vertex="1">
          <mxGeometry x="630" y="772" width="60" height="12" as="geometry" />
        </mxCell>
        <mxCell id="bvwN4WITmdQyCTtZIi4v-188" value="" style="ellipse;whiteSpace=wrap;html=1;fontFamily=Lucida Console;fontSize=20;strokeColor=#6E67A1;strokeWidth=2;fillColor=#FFFFFF;" parent="1" vertex="1">
          <mxGeometry x="230" y="1053.5" width="100" height="40" as="geometry" />
        </mxCell>
        <mxCell id="bvwN4WITmdQyCTtZIi4v-189" value="" style="ellipse;whiteSpace=wrap;html=1;fontFamily=Lucida Console;fontSize=20;strokeColor=#6E67A1;strokeWidth=2;fillColor=#d0cee2;" parent="1" vertex="1">
          <mxGeometry x="235" y="1056.5" width="90" height="34" as="geometry" />
        </mxCell>
        <mxCell id="bvwN4WITmdQyCTtZIi4v-190" value="&lt;div&gt;&lt;font style=&quot;font-size: 12px&quot; color=&quot;#6E67A1&quot;&gt;payments&lt;/font&gt;&lt;/div&gt;" style="text;html=1;strokeColor=none;fillColor=none;align=center;verticalAlign=middle;whiteSpace=wrap;rounded=0;fontFamily=Lucida Console;fontSize=20;fontColor=#FF8000;" parent="1" vertex="1">
          <mxGeometry x="250" y="1065.5" width="60" height="12" as="geometry" />
        </mxCell>
        <mxCell id="bvwN4WITmdQyCTtZIi4v-194" value="" style="ellipse;whiteSpace=wrap;html=1;fontFamily=Lucida Console;fontSize=20;strokeColor=#6E67A1;strokeWidth=2;fillColor=#d0cee2;dashed=1;" parent="1" vertex="1">
          <mxGeometry x="290" y="1001.5" width="100" height="40" as="geometry" />
        </mxCell>
        <mxCell id="bvwN4WITmdQyCTtZIi4v-195" value="&lt;font style=&quot;font-size: 12px&quot; color=&quot;#6E67A1&quot;&gt;balance&lt;/font&gt;" style="text;html=1;strokeColor=none;fillColor=none;align=center;verticalAlign=middle;whiteSpace=wrap;rounded=0;fontFamily=Lucida Console;fontSize=20;fontColor=#FF8000;" parent="1" vertex="1">
          <mxGeometry x="310" y="1013.5" width="60" height="12" as="geometry" />
        </mxCell>
        <mxCell id="bvwN4WITmdQyCTtZIi4v-197" value="" style="endArrow=none;html=1;rounded=0;fontFamily=Lucida Console;fontSize=12;fontColor=#6E67A1;strokeColor=#6E67A1;entryX=0.5;entryY=1;entryDx=0;entryDy=0;exitX=0.5;exitY=0;exitDx=0;exitDy=0;strokeWidth=2;" parent="1" edge="1">
          <mxGeometry width="50" height="50" relative="1" as="geometry">
            <mxPoint x="-110" y="320" as="sourcePoint" />
            <mxPoint x="-180" y="280" as="targetPoint" />
          </mxGeometry>
        </mxCell>
        <mxCell id="bvwN4WITmdQyCTtZIi4v-203" value="" style="endArrow=none;html=1;rounded=0;fontFamily=Lucida Console;fontSize=12;fontColor=#6E67A1;strokeColor=#6E67A1;entryX=1;entryY=0.5;entryDx=0;entryDy=0;exitX=0.5;exitY=1;exitDx=0;exitDy=0;strokeWidth=2;" parent="1" source="bvwN4WITmdQyCTtZIi4v-141" target="bvwN4WITmdQyCTtZIi4v-178" edge="1">
          <mxGeometry width="50" height="50" relative="1" as="geometry">
            <mxPoint x="150" y="1000.5" as="sourcePoint" />
            <mxPoint x="80" y="960.5" as="targetPoint" />
          </mxGeometry>
        </mxCell>
        <mxCell id="bvwN4WITmdQyCTtZIi4v-204" value="" style="endArrow=none;html=1;rounded=0;fontFamily=Lucida Console;fontSize=12;fontColor=#6E67A1;strokeColor=#6E67A1;entryX=0.5;entryY=1;entryDx=0;entryDy=0;exitX=0.5;exitY=0;exitDx=0;exitDy=0;strokeWidth=2;" parent="1" source="f4b_KUaprDpnl6uOXfkv-4" target="bvwN4WITmdQyCTtZIi4v-186" edge="1">
          <mxGeometry width="50" height="50" relative="1" as="geometry">
            <mxPoint x="1280" y="855.5" as="sourcePoint" />
            <mxPoint x="1230" y="873" as="targetPoint" />
          </mxGeometry>
        </mxCell>
        <mxCell id="bvwN4WITmdQyCTtZIi4v-205" value="" style="endArrow=none;html=1;rounded=0;fontFamily=Lucida Console;fontSize=12;fontColor=#6E67A1;strokeColor=#6E67A1;exitX=0;exitY=0.5;exitDx=0;exitDy=0;strokeWidth=2;entryX=0.5;entryY=1;entryDx=0;entryDy=0;" parent="1" target="bvwN4WITmdQyCTtZIi4v-141" edge="1" source="bvwN4WITmdQyCTtZIi4v-194">
          <mxGeometry width="50" height="50" relative="1" as="geometry">
            <mxPoint x="375" y="929" as="sourcePoint" />
            <mxPoint x="220" y="981.5" as="targetPoint" />
          </mxGeometry>
        </mxCell>
        <mxCell id="bvwN4WITmdQyCTtZIi4v-206" value="" style="endArrow=none;html=1;rounded=0;fontFamily=Lucida Console;fontSize=12;fontColor=#6E67A1;strokeColor=#6E67A1;entryX=0.5;entryY=1;entryDx=0;entryDy=0;exitX=0.5;exitY=0;exitDx=0;exitDy=0;strokeWidth=2;" parent="1" target="bvwN4WITmdQyCTtZIi4v-141" edge="1" source="bvwN4WITmdQyCTtZIi4v-188">
          <mxGeometry width="50" height="50" relative="1" as="geometry">
            <mxPoint x="375" y="978" as="sourcePoint" />
            <mxPoint x="325" y="995.5" as="targetPoint" />
          </mxGeometry>
        </mxCell>
        <mxCell id="bvwN4WITmdQyCTtZIi4v-207" value="" style="endArrow=none;html=1;rounded=0;fontFamily=Lucida Console;fontSize=12;fontColor=#6E67A1;strokeColor=#6E67A1;entryX=0.5;entryY=1;entryDx=0;entryDy=0;exitX=0.5;exitY=0;exitDx=0;exitDy=0;strokeWidth=2;" parent="1" target="bvwN4WITmdQyCTtZIi4v-141" edge="1" source="bvwN4WITmdQyCTtZIi4v-180">
          <mxGeometry width="50" height="50" relative="1" as="geometry">
            <mxPoint x="375" y="1026.5" as="sourcePoint" />
            <mxPoint x="325" y="1044" as="targetPoint" />
          </mxGeometry>
        </mxCell>
        <mxCell id="bvwN4WITmdQyCTtZIi4v-208" value="" style="endArrow=none;html=1;rounded=0;fontFamily=Lucida Console;fontSize=12;fontColor=#6E67A1;strokeColor=#6E67A1;strokeWidth=2;" parent="1" edge="1">
          <mxGeometry width="50" height="50" relative="1" as="geometry">
            <mxPoint x="100" y="1031.5" as="sourcePoint" />
            <mxPoint x="170" y="1031.5" as="targetPoint" />
          </mxGeometry>
        </mxCell>
        <mxCell id="bvwN4WITmdQyCTtZIi4v-209" value="" style="endArrow=none;html=1;rounded=0;fontFamily=Lucida Console;fontSize=12;fontColor=#6E67A1;strokeColor=#6E67A1;strokeWidth=2;" parent="1" edge="1">
          <mxGeometry width="50" height="50" relative="1" as="geometry">
            <mxPoint x="491" y="1157" as="sourcePoint" />
            <mxPoint x="561" y="1157" as="targetPoint" />
          </mxGeometry>
        </mxCell>
        <mxCell id="f4b_KUaprDpnl6uOXfkv-1" value="" style="ellipse;whiteSpace=wrap;html=1;fontFamily=Lucida Console;fontSize=20;strokeColor=#6E67A1;strokeWidth=2;fillColor=#d0cee2;" parent="1" vertex="1">
          <mxGeometry x="60" y="592" width="100" height="40" as="geometry" />
        </mxCell>
        <mxCell id="f4b_KUaprDpnl6uOXfkv-2" value="&lt;font style=&quot;font-size: 12px&quot; color=&quot;#6E67A1&quot;&gt;route&lt;/font&gt;" style="text;html=1;strokeColor=none;fillColor=none;align=center;verticalAlign=middle;whiteSpace=wrap;rounded=0;fontFamily=Lucida Console;fontSize=20;fontColor=#FF8000;" parent="1" vertex="1">
          <mxGeometry x="80" y="604" width="60" height="12" as="geometry" />
        </mxCell>
        <mxCell id="f4b_KUaprDpnl6uOXfkv-3" value="" style="endArrow=none;html=1;rounded=0;fontFamily=Lucida Console;fontSize=12;fontColor=#6E67A1;strokeColor=#6E67A1;strokeWidth=2;exitX=1;exitY=0.5;exitDx=0;exitDy=0;entryX=0.5;entryY=0;entryDx=0;entryDy=0;" parent="1" source="f4b_KUaprDpnl6uOXfkv-1" edge="1" target="bvwN4WITmdQyCTtZIi4v-15">
          <mxGeometry width="50" height="50" relative="1" as="geometry">
            <mxPoint x="100" y="790" as="sourcePoint" />
            <mxPoint x="220" y="740" as="targetPoint" />
          </mxGeometry>
        </mxCell>
        <mxCell id="f4b_KUaprDpnl6uOXfkv-4" value="" style="rounded=0;whiteSpace=wrap;html=1;fillColor=#dae8fc;strokeColor=#6c8ebf;strokeWidth=2;" parent="1" vertex="1">
          <mxGeometry x="560" y="820" width="200" height="40" as="geometry" />
        </mxCell>
        <mxCell id="f4b_KUaprDpnl6uOXfkv-5" value="&lt;font style=&quot;font-size: 20px&quot; face=&quot;Lucida Console&quot; color=&quot;#6C8EBF&quot;&gt;TICKET&lt;/font&gt;" style="text;html=1;strokeColor=none;fillColor=none;align=center;verticalAlign=middle;whiteSpace=wrap;rounded=0;" parent="1" vertex="1">
          <mxGeometry x="630" y="825" width="60" height="30" as="geometry" />
        </mxCell>
        <mxCell id="f4b_KUaprDpnl6uOXfkv-7" value="" style="rhombus;whiteSpace=wrap;html=1;fontFamily=Lucida Console;fontSize=20;strokeWidth=2;fillColor=#fad7ac;strokeColor=#FF8000;fontStyle=1" parent="1" vertex="1">
          <mxGeometry x="360" y="800" width="160" height="80" as="geometry" />
        </mxCell>
        <mxCell id="f4b_KUaprDpnl6uOXfkv-8" value="&lt;font color=&quot;#ff8000&quot;&gt;&lt;span&gt;issues&lt;/span&gt;&lt;/font&gt;" style="text;html=1;strokeColor=none;fillColor=none;align=center;verticalAlign=middle;whiteSpace=wrap;rounded=0;fontFamily=Lucida Console;fontSize=20;fontColor=#6C8EBF;fontStyle=0" parent="1" vertex="1">
          <mxGeometry x="410" y="825" width="60" height="30" as="geometry" />
        </mxCell>
        <mxCell id="f4b_KUaprDpnl6uOXfkv-12" value="2" style="text;html=1;align=center;verticalAlign=middle;resizable=0;points=[];autosize=1;strokeColor=none;fillColor=none;" parent="1" vertex="1">
          <mxGeometry x="330" y="150" width="20" height="20" as="geometry" />
        </mxCell>
        <mxCell id="f4b_KUaprDpnl6uOXfkv-13" value="N" style="text;html=1;align=center;verticalAlign=middle;resizable=0;points=[];autosize=1;strokeColor=none;fillColor=none;" parent="1" vertex="1">
          <mxGeometry x="525" y="150" width="20" height="20" as="geometry" />
        </mxCell>
        <mxCell id="f4b_KUaprDpnl6uOXfkv-16" value="" style="endArrow=none;html=1;rounded=0;fontFamily=Lucida Console;fontSize=20;fontColor=#FF8000;exitX=0.5;exitY=0;exitDx=0;exitDy=0;strokeColor=#000000;entryX=0.5;entryY=1;entryDx=0;entryDy=0;" parent="1" edge="1">
          <mxGeometry width="50" height="50" relative="1" as="geometry">
            <mxPoint x="660" y="261" as="sourcePoint" />
            <mxPoint x="660" y="201" as="targetPoint" />
          </mxGeometry>
        </mxCell>
        <mxCell id="f4b_KUaprDpnl6uOXfkv-17" value="M" style="text;html=1;align=center;verticalAlign=middle;resizable=0;points=[];autosize=1;strokeColor=none;fillColor=none;" parent="1" vertex="1">
          <mxGeometry x="656" y="223" width="30" height="20" as="geometry" />
        </mxCell>
        <mxCell id="f4b_KUaprDpnl6uOXfkv-18" value="M" style="text;html=1;align=center;verticalAlign=middle;resizable=0;points=[];autosize=1;strokeColor=none;fillColor=none;" parent="1" vertex="1">
          <mxGeometry x="438" y="328" width="30" height="20" as="geometry" />
        </mxCell>
        <mxCell id="f4b_KUaprDpnl6uOXfkv-19" value="N" style="text;html=1;align=center;verticalAlign=middle;resizable=0;points=[];autosize=1;strokeColor=none;fillColor=none;" parent="1" vertex="1">
          <mxGeometry x="438" y="444" width="20" height="20" as="geometry" />
        </mxCell>
        <mxCell id="f4b_KUaprDpnl6uOXfkv-20" value="" style="endArrow=none;html=1;rounded=0;fontFamily=Lucida Console;fontSize=20;fontColor=#FF8000;exitX=0.482;exitY=0.017;exitDx=0;exitDy=0;strokeColor=#000000;entryX=0.475;entryY=0.979;entryDx=0;entryDy=0;entryPerimeter=0;exitPerimeter=0;" parent="1" edge="1">
          <mxGeometry width="50" height="50" relative="1" as="geometry">
            <mxPoint x="437.4000000000001" y="474.67999999999995" as="sourcePoint" />
            <mxPoint x="437" y="430.31999999999994" as="targetPoint" />
          </mxGeometry>
        </mxCell>
        <mxCell id="f4b_KUaprDpnl6uOXfkv-22" value="1" style="text;html=1;align=center;verticalAlign=middle;resizable=0;points=[];autosize=1;strokeColor=none;fillColor=none;" parent="1" vertex="1">
          <mxGeometry x="330" y="700" width="20" height="20" as="geometry" />
        </mxCell>
        <mxCell id="f4b_KUaprDpnl6uOXfkv-23" value="1" style="text;html=1;align=center;verticalAlign=middle;resizable=0;points=[];autosize=1;strokeColor=none;fillColor=none;" parent="1" vertex="1">
          <mxGeometry x="439" y="666" width="20" height="20" as="geometry" />
        </mxCell>
        <mxCell id="f4b_KUaprDpnl6uOXfkv-24" value="1" style="text;html=1;align=center;verticalAlign=middle;resizable=0;points=[];autosize=1;strokeColor=none;fillColor=none;" parent="1" vertex="1">
          <mxGeometry x="530" y="700" width="20" height="20" as="geometry" />
        </mxCell>
        <mxCell id="f4b_KUaprDpnl6uOXfkv-25" value="N" style="text;html=1;align=center;verticalAlign=middle;resizable=0;points=[];autosize=1;strokeColor=none;fillColor=none;" parent="1" vertex="1">
          <mxGeometry x="200" y="891" width="20" height="20" as="geometry" />
        </mxCell>
        <mxCell id="f4b_KUaprDpnl6uOXfkv-26" value="1" style="text;html=1;align=center;verticalAlign=middle;resizable=0;points=[];autosize=1;strokeColor=none;fillColor=none;" parent="1" vertex="1">
          <mxGeometry x="530" y="820" width="20" height="20" as="geometry" />
        </mxCell>
        <mxCell id="f4b_KUaprDpnl6uOXfkv-27" value="1" style="text;html=1;align=center;verticalAlign=middle;resizable=0;points=[];autosize=1;strokeColor=none;fillColor=none;" parent="1" vertex="1">
          <mxGeometry x="370" y="891" width="20" height="20" as="geometry" />
        </mxCell>
        <mxCell id="f4b_KUaprDpnl6uOXfkv-30" value="" style="endArrow=none;html=1;rounded=0;fontFamily=Lucida Console;fontSize=20;fontColor=#FF8000;exitX=1;exitY=0.5;exitDx=0;exitDy=0;entryX=0.5;entryY=1;entryDx=0;entryDy=0;" parent="1" edge="1" target="f4b_KUaprDpnl6uOXfkv-7" source="bvwN4WITmdQyCTtZIi4v-141">
          <mxGeometry width="50" height="50" relative="1" as="geometry">
            <mxPoint x="1260" y="833.58" as="sourcePoint" />
            <mxPoint x="1290" y="834.08" as="targetPoint" />
          </mxGeometry>
        </mxCell>
        <mxCell id="f4b_KUaprDpnl6uOXfkv-32" value="N" style="text;html=1;align=center;verticalAlign=middle;resizable=0;points=[];autosize=1;strokeColor=none;fillColor=none;" parent="1" vertex="1">
          <mxGeometry x="458" y="944" width="20" height="20" as="geometry" />
        </mxCell>
        <mxCell id="f4b_KUaprDpnl6uOXfkv-33" value="1" style="text;html=1;align=center;verticalAlign=middle;resizable=0;points=[];autosize=1;strokeColor=none;fillColor=none;" parent="1" vertex="1">
          <mxGeometry x="638" y="1013.5" width="20" height="20" as="geometry" />
        </mxCell>
        <mxCell id="joPICeFfUyW9Jf4m2eAF-1" value="" style="ellipse;whiteSpace=wrap;html=1;fontFamily=Lucida Console;fontSize=20;strokeColor=#6E67A1;strokeWidth=2;fillColor=#d0cee2;" vertex="1" parent="1">
          <mxGeometry x="595" y="466" width="100" height="40" as="geometry" />
        </mxCell>
        <mxCell id="joPICeFfUyW9Jf4m2eAF-2" value="&lt;font style=&quot;font-size: 12px&quot; color=&quot;#6E67A1&quot;&gt;depart_station&lt;/font&gt;" style="text;html=1;strokeColor=none;fillColor=none;align=center;verticalAlign=middle;whiteSpace=wrap;rounded=0;fontFamily=Lucida Console;fontSize=20;fontColor=#FF8000;" vertex="1" parent="1">
          <mxGeometry x="615" y="478" width="60" height="12" as="geometry" />
        </mxCell>
        <mxCell id="joPICeFfUyW9Jf4m2eAF-3" value="" style="ellipse;whiteSpace=wrap;html=1;fontFamily=Lucida Console;fontSize=20;strokeColor=#6E67A1;strokeWidth=2;fillColor=#d0cee2;" vertex="1" parent="1">
          <mxGeometry x="598" y="514" width="100" height="40" as="geometry" />
        </mxCell>
        <mxCell id="joPICeFfUyW9Jf4m2eAF-4" value="&lt;font style=&quot;font-size: 12px&quot; color=&quot;#6E67A1&quot;&gt;destination&lt;/font&gt;" style="text;html=1;strokeColor=none;fillColor=none;align=center;verticalAlign=middle;whiteSpace=wrap;rounded=0;fontFamily=Lucida Console;fontSize=20;fontColor=#FF8000;" vertex="1" parent="1">
          <mxGeometry x="618" y="526" width="60" height="12" as="geometry" />
        </mxCell>
        <mxCell id="joPICeFfUyW9Jf4m2eAF-5" value="" style="endArrow=none;html=1;rounded=0;fontFamily=Lucida Console;fontSize=12;fontColor=#6E67A1;strokeColor=#6E67A1;strokeWidth=2;entryX=0;entryY=0.5;entryDx=0;entryDy=0;exitX=1;exitY=0.5;exitDx=0;exitDy=0;" edge="1" parent="1" source="bvwN4WITmdQyCTtZIi4v-12" target="joPICeFfUyW9Jf4m2eAF-1">
          <mxGeometry width="50" height="50" relative="1" as="geometry">
            <mxPoint x="515" y="546.6600000000001" as="sourcePoint" />
            <mxPoint x="585" y="546.6600000000001" as="targetPoint" />
          </mxGeometry>
        </mxCell>
        <mxCell id="joPICeFfUyW9Jf4m2eAF-6" value="" style="endArrow=none;html=1;rounded=0;fontFamily=Lucida Console;fontSize=12;fontColor=#6E67A1;strokeColor=#6E67A1;strokeWidth=2;entryX=0;entryY=0.5;entryDx=0;entryDy=0;exitX=1;exitY=0.5;exitDx=0;exitDy=0;" edge="1" parent="1" source="bvwN4WITmdQyCTtZIi4v-12" target="joPICeFfUyW9Jf4m2eAF-3">
          <mxGeometry width="50" height="50" relative="1" as="geometry">
            <mxPoint x="495" y="536.31" as="sourcePoint" />
            <mxPoint x="565" y="536.31" as="targetPoint" />
          </mxGeometry>
        </mxCell>
        <mxCell id="joPICeFfUyW9Jf4m2eAF-19" value="" style="rhombus;whiteSpace=wrap;html=1;fontFamily=Lucida Console;fontSize=20;strokeWidth=2;fillColor=#fad7ac;strokeColor=#FF8000;fontStyle=1" vertex="1" parent="1">
          <mxGeometry x="580" y="260" width="160" height="80" as="geometry" />
        </mxCell>
        <mxCell id="joPICeFfUyW9Jf4m2eAF-20" value="&lt;div&gt;&lt;font color=&quot;#FF8000&quot;&gt;consists_of&lt;/font&gt;&lt;/div&gt;" style="text;html=1;strokeColor=none;fillColor=none;align=center;verticalAlign=middle;whiteSpace=wrap;rounded=0;fontFamily=Lucida Console;fontSize=20;fontColor=#6C8EBF;fontStyle=0" vertex="1" parent="1">
          <mxGeometry x="630" y="285" width="60" height="30" as="geometry" />
        </mxCell>
        <mxCell id="joPICeFfUyW9Jf4m2eAF-23" value="" style="ellipse;whiteSpace=wrap;html=1;fontFamily=Lucida Console;fontSize=20;strokeColor=#6E67A1;strokeWidth=2;fillColor=#d0cee2;" vertex="1" parent="1">
          <mxGeometry x="60" y="644" width="100" height="40" as="geometry" />
        </mxCell>
        <mxCell id="joPICeFfUyW9Jf4m2eAF-24" value="&lt;font style=&quot;font-size: 12px&quot; color=&quot;#6E67A1&quot;&gt;train_no&lt;/font&gt;" style="text;html=1;strokeColor=none;fillColor=none;align=center;verticalAlign=middle;whiteSpace=wrap;rounded=0;fontFamily=Lucida Console;fontSize=20;fontColor=#FF8000;" vertex="1" parent="1">
          <mxGeometry x="80" y="656" width="60" height="12" as="geometry" />
        </mxCell>
        <mxCell id="joPICeFfUyW9Jf4m2eAF-26" value="" style="endArrow=none;html=1;rounded=0;fontFamily=Lucida Console;fontSize=12;fontColor=#6E67A1;strokeColor=#6E67A1;strokeWidth=2;exitX=1;exitY=0.5;exitDx=0;exitDy=0;" edge="1" parent="1" source="joPICeFfUyW9Jf4m2eAF-23">
          <mxGeometry width="50" height="50" relative="1" as="geometry">
            <mxPoint x="170" y="622" as="sourcePoint" />
            <mxPoint x="220" y="700" as="targetPoint" />
          </mxGeometry>
        </mxCell>
        <mxCell id="joPICeFfUyW9Jf4m2eAF-27" value="N" style="text;html=1;align=center;verticalAlign=middle;resizable=0;points=[];autosize=1;strokeColor=none;fillColor=none;" vertex="1" parent="1">
          <mxGeometry x="550" y="280" width="20" height="20" as="geometry" />
        </mxCell>
        <mxCell id="joPICeFfUyW9Jf4m2eAF-28" value="" style="rhombus;whiteSpace=wrap;html=1;fontFamily=Lucida Console;fontSize=20;strokeWidth=2;fillColor=#fad7ac;strokeColor=#FF8000;fontStyle=1" vertex="1" parent="1">
          <mxGeometry x="140" y="800" width="160" height="80" as="geometry" />
        </mxCell>
        <mxCell id="joPICeFfUyW9Jf4m2eAF-29" value="&lt;div&gt;&lt;font color=&quot;#FF8000&quot;&gt;references&lt;/font&gt;&lt;/div&gt;" style="text;html=1;strokeColor=none;fillColor=none;align=center;verticalAlign=middle;whiteSpace=wrap;rounded=0;fontFamily=Lucida Console;fontSize=20;fontColor=#6C8EBF;fontStyle=0" vertex="1" parent="1">
          <mxGeometry x="190" y="825" width="60" height="30" as="geometry" />
        </mxCell>
        <mxCell id="joPICeFfUyW9Jf4m2eAF-30" value="" style="endArrow=none;html=1;rounded=0;strokeColor=#000000;strokeWidth=1;exitX=0.5;exitY=0;exitDx=0;exitDy=0;entryX=0.5;entryY=1;entryDx=0;entryDy=0;" edge="1" parent="1" source="joPICeFfUyW9Jf4m2eAF-28" target="bvwN4WITmdQyCTtZIi4v-15">
          <mxGeometry width="50" height="50" relative="1" as="geometry">
            <mxPoint x="520" y="840" as="sourcePoint" />
            <mxPoint x="570" y="790" as="targetPoint" />
          </mxGeometry>
        </mxCell>
        <mxCell id="joPICeFfUyW9Jf4m2eAF-31" value="M" style="text;html=1;strokeColor=none;fillColor=none;align=center;verticalAlign=middle;whiteSpace=wrap;rounded=0;" vertex="1" parent="1">
          <mxGeometry x="205" y="760" width="10" height="30" as="geometry" />
        </mxCell>
      </root>
    </mxGraphModel>
  </diagram>
</mxfile>
